<svg width="1463" height="588" viewBox="0 0 1463 588" fill="none" xmlns="http://www.w3.org/2000/svg">
<path fill-rule="evenodd" clip-rule="evenodd" d="M98.7911 344.012H11.1966C5.03911 344.012 0 349.071 0 355.264V563.748C0 569.929 5.03911 575 11.1966 575H98.7911C104.949 575 110 569.942 110 563.748V355.252C110 349.071 104.961 344 98.7911 344V344.012ZM59.3017 366.701C59.3017 369.576 56.9542 371.933 54.0905 371.933H14.1095C11.2458 371.933 8.89833 369.576 8.89833 366.701V364.518C8.89833 361.631 11.2458 359.286 14.1095 359.286H54.0782C56.9542 359.286 59.2894 361.643 59.2894 364.518V366.701H59.3017Z" fill="#2D1D28" fill-opacity="0.52"/>
<g opacity="0.2">
<path d="M1125.45 443.348H1106.71C1104.36 443.348 1102.46 445.25 1102.46 447.596V447.61C1102.46 449.957 1104.36 451.859 1106.71 451.859H1125.45C1127.8 451.859 1129.7 449.957 1129.7 447.61V447.596C1129.7 445.25 1127.8 443.348 1125.45 443.348Z" fill="#182E36"/>
<path d="M1125.45 458.239H1106.71C1104.36 458.239 1102.46 460.141 1102.46 462.487V462.502C1102.46 464.848 1104.36 466.75 1106.71 466.75H1125.45C1127.8 466.75 1129.7 464.848 1129.7 462.502V462.487C1129.7 460.141 1127.8 458.239 1125.45 458.239Z" fill="#182E36"/>
<path d="M1106.71 471.442H1111.82C1114.16 471.442 1116.08 473.344 1116.08 475.705C1116.08 478.051 1114.18 479.953 1111.83 479.953H1106.72C1104.37 479.953 1102.47 478.051 1102.47 475.705C1102.47 473.359 1104.37 471.442 1106.72 471.442H1106.71Z" fill="#182E36"/>
<path d="M1316.73 258.682H1322.12C1323.33 258.682 1324.31 259.662 1324.31 260.871V261.787C1324.31 262.996 1323.33 263.976 1322.12 263.976H1316.73C1315.52 263.976 1314.54 262.996 1314.54 261.787V260.871C1314.54 259.662 1315.52 258.682 1316.73 258.682Z" fill="white"/>
<path d="M1272.46 258.682H1277.86C1279.07 258.682 1280.05 259.662 1280.05 260.871V261.787C1280.05 262.996 1279.07 263.976 1277.86 263.976H1272.46C1271.25 263.976 1270.27 262.996 1270.27 261.787V260.871C1270.27 259.662 1271.25 258.682 1272.46 258.682Z" fill="#231A31"/>
<path d="M1316.73 294.216H1322.12C1323.33 294.216 1324.31 295.196 1324.31 296.405V297.322C1324.31 298.531 1323.33 299.511 1322.12 299.511H1316.73C1315.52 299.511 1314.54 298.531 1314.54 297.322V296.405C1314.54 295.196 1315.52 294.216 1316.73 294.216Z" fill="white"/>
<path d="M1277.87 294.216H1272.46C1271.25 294.216 1270.27 295.196 1270.27 296.405V297.322C1270.27 298.531 1271.25 299.511 1272.46 299.511H1277.87C1279.08 299.511 1280.06 298.531 1280.06 297.322V296.405C1280.06 295.196 1279.08 294.216 1277.87 294.216Z" fill="#231A31"/>
<path fill-rule="evenodd" clip-rule="evenodd" d="M1400.33 231.368H1270.05C1260.89 231.368 1253.39 238.865 1253.39 248.028V556.859C1253.39 566.023 1260.89 573.519 1270.05 573.519H1400.33C1409.5 573.519 1417 566.023 1417 556.859V248.028C1417 238.865 1409.5 231.368 1400.33 231.368ZM1341.6 336.038C1341.6 340.302 1338.12 343.789 1333.85 343.789H1274.39C1270.13 343.789 1266.64 340.302 1266.64 336.038V332.806C1266.64 328.542 1270.13 325.055 1274.39 325.055H1333.85C1338.12 325.055 1341.6 328.542 1341.6 332.806V336.038ZM1341.6 300.504C1341.6 304.767 1338.12 308.255 1333.85 308.255H1274.39C1270.13 308.255 1266.64 304.767 1266.64 300.504V297.271C1266.64 293.007 1270.13 289.52 1274.39 289.52H1333.85C1338.12 289.52 1341.6 293.007 1341.6 297.271V300.504ZM1341.6 264.969C1341.6 269.232 1338.12 272.72 1333.85 272.72H1274.39C1270.13 272.72 1266.64 269.232 1266.64 264.969V261.736C1266.64 257.472 1270.13 253.985 1274.39 253.985H1333.85C1338.12 253.985 1341.6 257.472 1341.6 261.736V264.969Z" fill="#231A31"/>
<path d="M1316.73 329.738H1322.12C1323.33 329.738 1324.31 330.718 1324.31 331.927V332.844C1324.31 334.053 1323.33 335.033 1322.12 335.033H1316.73C1315.52 335.033 1314.54 334.053 1314.54 332.844V331.927C1314.54 330.718 1315.52 329.738 1316.73 329.738Z" fill="#231A31"/>
<path d="M1277.87 329.739H1272.46C1271.25 329.739 1270.27 330.719 1270.27 331.928V332.844C1270.27 334.053 1271.25 335.033 1272.46 335.033H1277.87C1279.08 335.033 1280.06 334.053 1280.06 332.844V331.928C1280.06 330.719 1279.08 329.739 1277.87 329.739Z" fill="#231A31"/>
<path d="M1334.31 258.682H1328.9C1327.69 258.682 1326.71 259.662 1326.71 260.871V261.787C1326.71 262.996 1327.69 263.976 1328.9 263.976H1334.31C1335.52 263.976 1336.5 262.996 1336.5 261.787V260.871C1336.5 259.662 1335.52 258.682 1334.31 258.682Z" fill="white"/>
<path d="M1334.31 294.216H1328.9C1327.69 294.216 1326.71 295.196 1326.71 296.405V297.322C1326.71 298.531 1327.69 299.511 1328.9 299.511H1334.31C1335.52 299.511 1336.5 298.531 1336.5 297.322V296.405C1336.5 295.196 1335.52 294.216 1334.31 294.216Z" fill="#231A31"/>
<path d="M1334.31 329.739H1328.9C1327.69 329.739 1326.71 330.719 1326.71 331.928V332.844C1326.71 334.053 1327.69 335.033 1328.9 335.033H1334.31C1335.52 335.033 1336.5 334.053 1336.5 332.844V331.928C1336.5 330.719 1335.52 329.739 1334.31 329.739Z" fill="#231A31"/>
<path d="M1458.74 147.424H1421.25C1418.9 147.424 1417 149.326 1417 151.673V151.687C1417 154.033 1418.9 155.936 1421.25 155.936H1458.74C1461.09 155.936 1462.99 154.033 1462.99 151.687V151.673C1462.99 149.326 1461.09 147.424 1458.74 147.424Z" fill="#182E36"/>
<path d="M1439.99 162.315H1421.25C1418.9 162.315 1417 164.218 1417 166.564V166.578C1417 168.925 1418.9 170.827 1421.25 170.827H1439.99C1442.34 170.827 1444.24 168.925 1444.24 166.578V166.564C1444.24 164.218 1442.34 162.315 1439.99 162.315Z" fill="#182E36"/>
<path d="M1426.37 175.504H1421.25C1418.9 175.504 1417 177.406 1417 179.752V179.767C1417 182.113 1418.9 184.015 1421.25 184.015H1426.37C1428.72 184.015 1430.62 182.113 1430.62 179.767V179.752C1430.62 177.406 1428.72 175.504 1426.37 175.504Z" fill="#182E36"/>
<path d="M124.74 215H87.2498C84.9027 215 83 216.902 83 219.248V219.263C83 221.609 84.9027 223.511 87.2498 223.511H124.74C127.087 223.511 128.989 221.609 128.989 219.263V219.248C128.989 216.902 127.087 215 124.74 215Z" fill="#0F0715"/>
<path d="M105.995 229.891H87.2498C84.9027 229.891 83 231.793 83 234.14V234.154C83 236.5 84.9027 238.402 87.2498 238.402H105.995C108.342 238.402 110.244 236.5 110.244 234.154V234.14C110.244 231.793 108.342 229.891 105.995 229.891Z" fill="#0F0715"/>
<path d="M92.3725 243.08H87.2498C84.9027 243.08 83 244.982 83 247.329V247.343C83 249.689 84.9027 251.591 87.2498 251.591H92.3725C94.7196 251.591 96.6223 249.689 96.6223 247.343V247.329C96.6223 244.982 94.7196 243.08 92.3725 243.08Z" fill="#0F0715"/>
</g>
<g opacity="0.8">
<path d="M71.1229 459.222C79.4811 468.712 82.5447 479.7 77.9546 483.744C73.3752 487.799 62.8822 483.391 54.524 473.901C46.1658 464.411 47.6923 449.379 47.6923 449.379C47.6923 449.379 62.7647 449.732 71.1229 459.222Z" fill="#5ECB96"/>
<path d="M68.5399 497.503C76.8981 506.993 79.9617 517.97 75.3716 522.025C70.7922 526.08 60.2991 521.672 51.941 512.182C43.5828 502.692 45.1093 487.66 45.1093 487.66C45.1093 487.66 60.1817 488.013 68.5399 497.514V497.503Z" fill="#5ECB96"/>
<path d="M100.275 445.913C91.9171 455.403 88.8535 466.391 93.4436 470.435C98.023 474.49 108.516 470.082 116.874 460.592C125.232 451.102 123.706 436.07 123.706 436.07C123.706 436.07 108.633 436.423 100.275 445.913V445.913Z" fill="#5ECB96"/>
<path d="M102.848 484.193C94.4894 493.683 91.4258 504.671 96.0159 508.715C100.595 512.77 111.088 508.362 119.446 498.872C127.805 489.382 126.278 474.351 126.278 474.351C126.278 474.351 111.206 474.704 102.848 484.204V484.193Z" fill="#5ECB96"/>
<path d="M104.695 499.921L103.286 498.519L86.4627 515.659V490.827L86.6335 490.666L86.4627 490.495V478.459L106.381 458.163L104.972 456.762L86.4627 475.624V451.38H84.189V488.184L66.4266 470.082L65.0068 471.473L84.189 491.019V528.219L68.1131 511.829L66.6934 513.23L84.189 531.054V551.393H86.4627V530.862L86.6335 530.701L86.4627 530.53V518.494L104.695 499.921Z" fill="#389361"/>
<path d="M96.0272 576H75.3719L70.5684 541.325H101.557L96.0272 576Z" fill="#FE5487"/>
<path d="M71.8916 550.89L72.5534 555.63H99.2718L100.03 550.89H71.8916Z" fill="#C13665"/>
</g>
<g opacity="0.8">
<path d="M1375.12 459.222C1383.48 468.712 1386.54 479.7 1381.95 483.744C1377.38 487.799 1366.88 483.391 1358.52 473.901C1350.17 464.411 1351.69 449.379 1351.69 449.379C1351.69 449.379 1366.76 449.732 1375.12 459.222Z" fill="#5ECB96"/>
<path d="M1372.54 497.503C1380.9 506.993 1383.96 517.97 1379.37 522.025C1374.79 526.08 1364.3 521.672 1355.94 512.182C1347.58 502.692 1349.11 487.66 1349.11 487.66C1349.11 487.66 1364.18 488.013 1372.54 497.514V497.503Z" fill="#5ECB96"/>
<path d="M1404.28 445.913C1395.92 455.403 1392.85 466.391 1397.44 470.435C1402.02 474.49 1412.52 470.082 1420.87 460.592C1429.23 451.102 1427.71 436.07 1427.71 436.07C1427.71 436.07 1412.63 436.423 1404.28 445.913V445.913Z" fill="#5ECB96"/>
<path d="M1406.85 484.193C1398.49 493.683 1395.43 504.671 1400.02 508.715C1404.6 512.77 1415.09 508.362 1423.45 498.872C1431.81 489.382 1430.28 474.351 1430.28 474.351C1430.28 474.351 1415.21 474.704 1406.85 484.204V484.193Z" fill="#5ECB96"/>
<path d="M1408.69 499.921L1407.29 498.519L1390.46 515.659V490.827L1390.63 490.666L1390.46 490.495V478.459L1410.38 458.163L1408.97 456.762L1390.46 475.624V451.38H1388.19V488.184L1370.43 470.082L1369.01 471.473L1388.19 491.019V528.219L1372.11 511.829L1370.69 513.23L1388.19 531.054V551.393H1390.46V530.862L1390.63 530.701L1390.46 530.53V518.494L1408.69 499.921Z" fill="#389361"/>
<path d="M1400.03 576H1379.37L1374.57 541.325H1405.56L1400.03 576Z" fill="#FE5487"/>
<path d="M1375.89 550.89L1376.55 555.63H1403.27L1404.03 550.89H1375.89Z" fill="#C13665"/>
</g>
<g opacity="0.8">
<path d="M220.067 526.927H210.094V573.42H220.067V526.927Z" fill="url(#paint0_linear_3362_6556)"/>
<path d="M248.168 577.223L182.69 578C179.978 578 177.795 575.801 177.795 573.106C177.795 570.395 179.995 568.212 182.69 568.212L248.168 567.435C250.88 567.435 253.063 569.634 253.063 572.329C253.063 575.041 250.864 577.223 248.168 577.223Z" fill="url(#paint1_linear_3362_6556)"/>
<path d="M251.805 512.742H182.507C178.022 512.742 174.387 516.373 174.387 520.851C174.387 525.33 178.022 528.961 182.507 528.961H251.805C256.29 528.961 259.926 525.33 259.926 520.851C259.926 516.373 256.29 512.742 251.805 512.742Z" fill="url(#paint2_linear_3362_6556)"/>
<path d="M289.944 563.219C289.944 563.219 290.242 570.097 273.802 568.494C273.802 568.494 261.58 527.143 255.741 516.28L230.305 514.577L225.161 493.612L259.049 495.067C259.049 495.067 268.609 492.951 273.107 509.385L289.944 563.203V563.219Z" fill="#2B2A40"/>
<path d="M225.591 446.673C225.591 429.999 212.074 416.482 195.4 416.482C178.725 416.482 165.208 429.999 165.208 446.673V483.609C165.208 500.283 178.725 513.799 195.4 513.799C212.074 513.799 225.591 500.283 225.591 483.609V446.673Z" fill="url(#paint3_linear_3362_6556)"/>
<path d="M233.331 446.672C233.331 429.998 219.813 416.481 203.139 416.481C186.465 416.481 172.947 429.998 172.947 446.672V483.608C172.947 500.282 186.465 513.799 203.139 513.799C219.813 513.799 233.331 500.282 233.331 483.608V446.672Z" fill="#41166C"/>
<path d="M195.524 425.063C188.148 428.733 186.395 436.719 186.395 448.756L185.965 458.445C185.717 473.738 192.117 472.168 199.725 472.168H251.988L249.143 442.242C249.143 435.975 249.143 429.395 243.107 425.361" fill="url(#paint4_linear_3362_6556)"/>
<path d="M219.192 435.479C206.192 435.479 195.641 430.651 195.641 424.683C195.641 418.714 206.192 413.886 219.192 413.886C232.192 413.886 242.743 418.714 242.743 424.683C242.743 430.651 232.192 435.479 219.192 435.479Z" fill="url(#paint5_linear_3362_6556)"/>
<path d="M193.821 472.928C194.714 472.928 195.657 472.879 196.599 472.813C197.542 472.763 198.534 472.697 199.51 472.697L215.503 472.928V471.225L199.51 470.994C198.452 470.994 197.459 471.06 196.484 471.126C193.474 471.308 190.877 471.457 189.273 469.886C187.553 468.183 186.858 464.381 187.156 458.23L187.602 450.343C187.602 450.112 187.586 449.864 187.503 449.649C187.42 449.434 187.305 449.219 187.139 449.054C186.974 448.872 186.792 448.74 186.577 448.64C186.362 448.541 186.13 448.492 185.899 448.475L185.469 458.164C185.138 465.009 185.948 468.993 188.098 471.126C189.604 472.614 191.621 472.945 193.837 472.945L193.821 472.928Z" fill="#1C64A5"/>
<path d="M199.411 418.879C199.411 418.879 199.543 418.83 199.61 418.83C199.676 418.83 199.742 418.83 199.808 418.879C196.814 420.516 194.301 426.038 201.462 429.791C205.332 431.875 209.632 433.098 214.015 433.346C214.478 433.379 214.908 433.578 215.222 433.908C215.536 434.239 215.702 434.685 215.702 435.148C200.486 434.652 195.558 427.807 195.657 424.6C195.723 422.616 196.881 420.582 199.411 418.879V418.879Z" fill="#1C64A5"/>
<path d="M238.922 418.714C238.922 418.714 238.807 418.681 238.74 418.681C238.674 418.681 238.608 418.681 238.559 418.714C241.502 420.351 243.983 425.873 236.921 429.626C233.134 431.71 228.933 432.917 224.6 433.181C224.12 433.214 223.674 433.429 223.343 433.776C223.012 434.124 222.83 434.587 222.83 435.066V435.264C234.325 436.703 242.71 427.642 242.627 424.435C242.577 422.467 241.436 420.434 238.939 418.698L238.922 418.714Z" fill="#1C64A5"/>
<path d="M213.816 427.097L218.1 430.52C218.447 430.801 218.877 430.949 219.324 430.949C219.77 430.949 220.2 430.801 220.548 430.52L224.385 427.494L224.335 418.83L214.263 417.557L213.816 427.114V427.097Z" fill="#F3EBFF"/>
<path d="M220.631 420.367C226.502 420.367 232.126 418.036 236.26 413.903C240.411 409.769 242.743 404.148 242.743 398.295V358.862C242.743 357.572 242.495 356.299 241.999 355.109C241.503 353.918 240.775 352.827 239.866 351.918C238.956 351.009 237.865 350.281 236.674 349.785C235.483 349.289 234.193 349.041 232.903 349.041L206.755 357.275C201.314 357.275 198.519 361.904 198.519 367.327L198.783 395.815C210.261 418.797 215.239 419.342 220.631 420.367V420.367Z" fill="url(#paint6_radial_3362_6556)"/>
<path d="M237.384 398.328C236.293 398.328 235.399 397.435 235.399 396.344C235.399 395.253 236.293 394.36 237.384 394.36C238.476 394.36 239.369 395.253 239.369 396.344C239.369 397.435 238.476 398.328 237.384 398.328Z" fill="#5B5159"/>
<path d="M217.34 397.865C216.199 397.865 215.256 396.939 215.256 395.799C215.256 394.658 216.182 393.732 217.34 393.732C218.497 393.732 219.424 394.658 219.424 395.799C219.424 396.939 218.497 397.865 217.34 397.865Z" fill="#5B5159"/>
<path d="M203.05 388.392C202.471 388.077 201.826 387.896 201.164 387.896C198.501 387.896 196.599 390.706 196.351 394.162C195.954 399.866 199.94 402.329 206.06 401.751" fill="#DACEDF"/>
<path d="M225.79 412.167C227.874 412.085 229.875 411.374 231.529 410.134C231.628 410.068 231.695 409.985 231.761 409.886C231.827 409.787 231.86 409.687 231.876 409.572C231.893 409.456 231.893 409.34 231.876 409.241C231.86 409.125 231.81 409.026 231.744 408.927C231.678 408.828 231.595 408.761 231.496 408.695C231.397 408.629 231.298 408.596 231.182 408.58C231.066 408.563 230.95 408.563 230.851 408.58C230.735 408.596 230.636 408.646 230.537 408.712C227.196 411.027 224.285 411.043 221.407 408.745C221.225 408.596 221.01 408.53 220.779 408.563C220.547 408.58 220.349 408.695 220.2 408.877C220.051 409.059 219.985 409.274 220.018 409.505C220.035 409.737 220.15 409.935 220.332 410.084C221.854 411.39 223.772 412.118 225.774 412.151L225.79 412.167Z" fill="#5B5159"/>
<path d="M212.245 350.017H212.46C218.166 350.017 221.292 349.173 219.688 346.693C219.688 346.693 212.89 338.559 210.327 333.814C210.211 333.599 210.161 333.367 210.178 333.136C210.195 332.904 210.277 332.673 210.426 332.491C210.575 332.309 210.757 332.16 210.988 332.078C211.203 331.995 211.451 331.978 211.683 332.028C211.683 332.028 248.499 341.204 251.575 355.886C251.575 355.886 252.336 365.343 246.299 371.99C242.115 376.586 234.441 380.257 230.058 380.24C223.062 380.24 209.335 374.106 209.401 374.321C211.633 381.679 204.588 382.505 204.588 382.505C203.414 394.707 197.741 384.622 197.625 384.407C195.475 381.265 179.118 355.787 212.245 349.984V350.017Z" fill="#1D1D1B"/>
<path d="M215.635 403.14C216.644 403.14 217.703 403.107 218.794 403.024C222.383 402.759 225.41 399.849 226.121 395.931L226.584 393.484C227.014 391.202 225.641 388.987 223.541 388.59C219.505 387.747 215.371 387.449 211.253 387.714C208.921 387.879 207.085 389.929 206.986 392.492L206.82 396.559C206.688 399.816 208.871 402.627 211.798 402.958C213.072 403.107 214.345 403.173 215.635 403.173V403.14ZM214.097 389.582C217.14 389.599 220.184 389.929 223.161 390.541C224.169 390.739 224.831 391.913 224.616 393.12L224.153 395.584C223.574 398.609 221.325 400.858 218.645 401.056C216.446 401.238 214.213 401.205 212.013 400.974C210.128 400.759 208.722 398.857 208.821 396.642L208.987 392.575C209.053 391.037 210.095 389.813 211.418 389.731C212.295 389.648 213.188 389.615 214.097 389.615V389.582Z" fill="#1D1D1B"/>
<path d="M240.509 403.603C241.386 403.603 242.229 403.569 243.056 403.503C245.984 403.272 248.25 400.527 248.217 397.27L248.183 393.203C248.183 390.657 246.397 388.54 244.065 388.292C239.964 387.896 235.829 388.044 231.76 388.755C229.66 389.086 228.221 391.252 228.568 393.55L228.949 396.014C229.528 399.949 232.472 402.974 236.044 403.355C237.516 403.52 239.004 403.603 240.493 403.619L240.509 403.603ZM242.908 401.519C240.691 401.668 238.475 401.618 236.275 401.37C233.596 401.089 231.413 398.758 230.933 395.716L230.553 393.252C230.371 392.045 231.066 390.888 232.091 390.723C235.978 390.045 239.931 389.896 243.85 390.276C245.173 390.425 246.182 391.682 246.182 393.236L246.215 397.303C246.215 399.519 244.776 401.37 242.891 401.519H242.908Z" fill="#1D1D1B"/>
<path d="M227.246 394.708C226.32 394.708 225.394 394.923 224.964 395.848H224.914L224.385 389.731L230.835 389.615L229.247 395.915L229.694 395.518C229.28 394.575 228.139 394.724 227.229 394.708H227.246Z" fill="#1D1D1B"/>
<path d="M208.077 391.714L208.772 390.16L198.617 385.845L198.733 388.655L208.077 391.714V391.714Z" fill="#1D1D1B"/>
<path d="M217.703 431.941C217.819 431.941 217.934 431.925 218.05 431.875C218.149 431.826 218.249 431.76 218.331 431.677C218.414 431.594 218.464 431.495 218.513 431.396C218.546 431.297 218.579 431.181 218.563 431.065C218.563 430.949 218.53 430.834 218.48 430.735C217.819 429.246 216.611 427.229 213.717 426.849C210.641 426.436 209.318 425.146 208.755 424.154C208.64 423.956 208.458 423.807 208.243 423.741C208.028 423.675 207.796 423.708 207.598 423.823C207.399 423.939 207.25 424.121 207.184 424.336C207.118 424.551 207.151 424.782 207.267 424.981C208.028 426.32 209.731 428.023 213.502 428.536C215.503 428.8 216.363 430.073 216.926 431.412C216.992 431.561 217.107 431.693 217.24 431.793C217.372 431.892 217.537 431.941 217.703 431.941V431.941Z" fill="#1C64A5"/>
<path d="M220.746 431.941C220.911 431.941 221.077 431.891 221.209 431.808C221.341 431.726 221.457 431.594 221.523 431.445C222.119 430.106 222.945 428.832 224.947 428.568C228.718 428.072 230.421 426.369 231.182 425.013C231.248 424.914 231.281 424.798 231.298 424.682C231.314 424.567 231.298 424.451 231.298 424.335C231.264 424.22 231.215 424.12 231.149 424.021C231.083 423.922 230.983 423.856 230.884 423.79C230.785 423.74 230.669 423.69 230.553 423.69C230.438 423.69 230.322 423.69 230.206 423.723C230.09 423.757 229.991 423.823 229.908 423.889C229.826 423.972 229.743 424.054 229.693 424.153C229.114 425.162 227.791 426.435 224.732 426.848C221.837 427.229 220.63 429.246 219.968 430.734C219.919 430.833 219.902 430.949 219.886 431.064C219.886 431.18 219.886 431.296 219.935 431.395C219.968 431.494 220.035 431.594 220.117 431.676C220.2 431.759 220.283 431.825 220.398 431.875C220.514 431.924 220.63 431.941 220.746 431.941V431.941Z" fill="#1C64A5"/>
<path d="M217.588 470.679L218.613 473.209C219.324 473.771 224.766 473.771 225.46 473.209L228.14 471.06L229.628 463.338C226.734 461.487 221.921 459.916 218.034 461.123L217.588 470.696V470.679Z" fill="#F3EBFF"/>
<path opacity="0.6" d="M221.407 420.103C222.449 420.103 223.475 419.938 224.467 419.624L224.55 419.376C219.77 420.434 208.457 412.399 204.984 401.999L201.825 401.833C207.465 411.307 212.658 420.103 221.407 420.103Z" fill="#CABFCE"/>
<path opacity="0.6" d="M213.899 426.915C214.991 426.915 216.182 427.543 217.389 428.519L217.455 419.342C216.314 419.16 215.239 418.697 214.313 418.036L213.883 426.915H213.899Z" fill="#CABFCE"/>
<path opacity="0.6" d="M217.57 468.117H227.196V470.862H217.57V468.117Z" fill="#CABFCE"/>
<path d="M193.457 457.965C194.797 457.668 196.087 457.436 197.36 457.238C197.36 457.238 197.36 457.205 197.36 457.188C198.121 454.328 198.022 451.335 197.046 448.525C197.013 448.425 196.996 448.31 197.013 448.211C197.013 448.111 197.062 447.996 197.112 447.913C197.162 447.814 197.244 447.731 197.327 447.665C197.41 447.599 197.509 447.549 197.625 447.516C197.74 447.483 197.84 447.467 197.956 447.483C198.071 447.483 198.187 447.516 198.286 447.566C198.386 447.615 198.468 447.681 198.551 447.764C198.617 447.847 198.683 447.946 198.716 448.045C199.725 450.939 199.874 454.03 199.179 457.006C204.125 456.411 209.152 456.957 213.8 458.61C213.949 458.66 214.081 458.759 214.18 458.875C214.279 458.991 214.329 459.123 214.346 459.272L214.527 460.875L218.116 461.024C218.348 461.024 218.563 461.123 218.728 461.272C218.894 461.421 218.976 461.636 218.976 461.834C218.976 462.049 218.877 462.248 218.712 462.396C218.546 462.545 218.331 462.628 218.1 462.611H218.067L213.734 462.43C213.535 462.43 213.337 462.347 213.188 462.215C213.039 462.082 212.94 461.917 212.923 461.719L212.708 459.916C207.151 458.032 200.999 457.899 193.903 459.503C193.788 459.536 193.672 459.536 193.556 459.536C193.44 459.536 193.325 459.487 193.225 459.437C193.126 459.387 193.043 459.305 192.961 459.222C192.895 459.139 192.845 459.04 192.812 458.941C192.779 458.842 192.779 458.726 192.812 458.627C192.828 458.528 192.878 458.412 192.928 458.329C192.994 458.23 193.077 458.164 193.159 458.098C193.258 458.032 193.358 457.998 193.473 457.965H193.457Z" fill="#1C64A5"/>
<path d="M195.54 493.893C195.54 493.893 189.008 512.923 214.825 513.436L229.677 514.081L231.231 568.857L246.943 567.7L245.521 508.228C245.521 508.228 247.109 497.084 233.58 493.645L195.557 493.91L195.54 493.893Z" fill="#33354B"/>
<path d="M195.017 475H244V488.259C244 491.423 241.163 494 237.678 494H198.385C196.527 494 195 492.629 195 490.926V475H195.017Z" fill="#1C64A5"/>
<path d="M205.662 527.936H224.301V537.542C224.301 542.684 220.117 546.867 214.973 546.867C209.83 546.867 205.646 542.684 205.646 537.542V527.936H205.662Z" fill="#0B0B0F"/>
</g>
<path d="M236.632 469.79H202.053C201.358 469.79 200.698 470.068 200.194 470.554C199.708 471.041 199.43 471.718 199.43 472.413C199.43 473.108 199.708 473.768 200.194 474.272C200.681 474.758 201.358 475.036 202.053 475.036H236.632V469.807V469.79Z" fill="url(#paint7_linear_3362_6556)"/>
<path d="M295.641 434.493L293.956 431.54C293.382 430.533 292.548 429.699 291.54 429.126C290.533 428.552 289.403 428.24 288.239 428.24L242.801 428.413C242.053 428.413 241.324 428.657 240.733 429.091C240.142 429.525 239.69 430.151 239.464 430.863L226.745 469.929C226.154 474.376 229.873 474.81 232.688 474.949L242.384 434.58C242.609 433.903 243.026 433.329 243.617 432.93C244.191 432.53 244.886 432.322 245.598 432.357L295.641 434.476V434.493Z" fill="#41166C"/>
<path d="M232.67 475.036H280.419C280.993 475.036 281.549 474.862 282.018 474.515C282.487 474.185 282.835 473.698 283.008 473.16L295.432 435.848C295.571 435.431 295.606 434.997 295.536 434.562C295.467 434.128 295.311 433.728 295.05 433.381C294.789 433.034 294.459 432.738 294.077 432.547C293.695 432.356 293.26 432.252 292.826 432.252H245.076C244.503 432.252 243.947 432.426 243.478 432.773C243.009 433.103 242.661 433.589 242.487 434.128L230.046 471.44C229.907 471.857 229.872 472.291 229.942 472.725C230.011 473.16 230.168 473.559 230.429 473.907C230.689 474.254 231.019 474.549 231.402 474.74C231.784 474.932 232.218 475.036 232.653 475.036H232.67Z" fill="url(#paint8_linear_3362_6556)"/>
<path opacity="0.8" d="M258.074 456.45L259.186 450.717C259.221 450.544 259.291 450.387 259.412 450.248C259.516 450.109 259.673 450.005 259.829 449.936L265.563 447.573C265.737 447.504 265.928 447.469 266.102 447.504C266.293 447.521 266.467 447.608 266.606 447.712L271.089 451.1C271.245 451.221 271.367 451.378 271.436 451.569C271.506 451.76 271.523 451.951 271.489 452.159L270.394 457.874C270.359 458.048 270.29 458.204 270.168 458.343C270.064 458.482 269.907 458.586 269.751 458.656L264.017 461.018C263.843 461.088 263.669 461.105 263.478 461.088C263.304 461.07 263.131 461.001 262.974 460.879L258.491 457.492C258.335 457.37 258.213 457.214 258.144 457.023C258.074 456.832 258.057 456.641 258.092 456.45H258.074Z" fill="#783CAE"/>
<g opacity="0.8">
<path d="M1247.98 524.615H1238.49V569.003H1247.98V524.615Z" fill="url(#paint9_linear_3362_6556)"/>
<path d="M1211.76 572.634L1274.08 573.376C1276.66 573.376 1278.74 571.276 1278.74 568.703C1278.74 566.115 1276.65 564.031 1274.08 564.031L1211.76 563.289C1209.18 563.289 1207.1 565.388 1207.1 567.961C1207.1 570.55 1209.2 572.634 1211.76 572.634Z" fill="url(#paint10_linear_3362_6556)"/>
<path d="M1208.3 526.572H1274.25C1278.52 526.572 1281.98 523.106 1281.98 518.83C1281.98 514.553 1278.52 511.087 1274.25 511.087H1208.3C1204.03 511.087 1200.57 514.553 1200.57 518.83C1200.57 523.106 1204.03 526.572 1208.3 526.572Z" fill="url(#paint11_linear_3362_6556)"/>
<path d="M1172 559.264C1172 559.264 1171.72 565.83 1187.36 564.299C1187.36 564.299 1199 524.82 1204.55 514.449L1228.76 512.823L1233.66 492.808L1201.4 494.197C1201.4 494.197 1192.31 492.176 1188.02 507.867L1172 559.248V559.264Z" fill="#363450"/>
<path d="M1233.23 483.273C1233.23 499.192 1246.1 512.097 1261.97 512.097C1277.84 512.097 1290.7 499.192 1290.7 483.273V448.009C1290.7 432.09 1277.84 419.185 1261.97 419.185C1246.1 419.185 1233.23 432.09 1233.23 448.009V483.273Z" fill="url(#paint12_linear_3362_6556)"/>
<path d="M1225.87 483.273C1225.87 499.192 1238.73 512.097 1254.6 512.097C1270.47 512.097 1283.33 499.192 1283.33 483.273V448.009C1283.33 432.09 1270.47 419.185 1254.6 419.185C1238.73 419.185 1225.87 432.09 1225.87 448.009V483.273Z" fill="#41166C"/>
<path d="M1265.47 493.092C1265.47 493.092 1271.69 511.261 1247.12 511.75L1232.98 512.366L1231.5 564.662L1216.55 563.557L1217.9 506.778C1217.9 506.778 1216.39 496.138 1229.27 492.855L1265.45 493.108L1265.47 493.092Z" fill="#40425D"/>
<path d="M1243.32 543.652C1238.43 543.652 1234.44 539.658 1234.44 534.749V525.578H1252.18V534.749C1252.18 539.658 1248.2 543.652 1243.31 543.652H1243.32Z" fill="#0B0B0F"/>
<path d="M1258.94 421.49C1267.77 421.427 1278.58 428.767 1278.12 444.015C1278.05 446.809 1277.87 452.555 1277.87 452.555C1276.53 462.626 1269.29 468.94 1260.89 468.735L1212.09 470.613L1214.99 439.485C1214.99 438.522 1215.57 443.842 1215.62 442.863C1215.79 434.718 1218.56 422.816 1229.88 421.869L1258.94 421.49V421.49Z" fill="url(#paint13_linear_3362_6556)"/>
<path d="M1251.46 421.49L1247.29 429.556C1247.1 429.809 1246.86 430.03 1246.58 430.172C1246.3 430.314 1245.98 430.393 1245.67 430.377C1245.35 430.377 1245.04 430.283 1244.77 430.141C1244.49 429.983 1244.25 429.762 1244.08 429.493L1240.54 421.885L1240.58 415.113L1251.3 410.961L1251.46 421.474V421.49Z" fill="#998291"/>
<path d="M1246.39 468.104H1238.14V469.888H1246.39V468.104Z" fill="#46332D"/>
<path d="M1247.3 470.898L1246.36 472.792C1245.64 473.392 1240.02 473.392 1239.29 472.792L1236.52 470.566L1235.2 464.347C1235.73 458.727 1244.8 459.012 1247.43 462.2L1264.01 462.658C1264.35 462.658 1264.7 462.611 1265.03 462.484C1265.36 462.358 1265.64 462.169 1265.89 461.916C1266.15 461.663 1266.33 461.379 1266.48 461.048C1266.6 460.716 1266.68 460.369 1266.67 460.022L1266.57 452.177L1277.84 451.719C1277.48 466.92 1276.94 471.861 1268.16 470.882H1247.29L1247.3 470.898Z" fill="#957F8C"/>
<path d="M1241.58 419.422C1235.67 418.049 1230.57 414.387 1227.36 409.225C1224.15 404.063 1223.13 397.828 1224.5 391.908L1230.82 364.442C1232.08 358.949 1237.44 355.965 1242.9 357.228L1270.24 358.728C1275.7 359.991 1277.45 365.326 1276.19 370.835L1267.81 400.574C1250.91 421.158 1247.23 419.659 1241.58 419.438V419.422Z" fill="url(#paint14_linear_3362_6556)"/>
<path d="M1228.31 393.203C1229.41 393.455 1230.51 392.761 1230.76 391.656C1231.01 390.551 1230.34 389.446 1229.22 389.177C1228.12 388.925 1227.01 389.619 1226.76 390.724C1226.51 391.829 1227.19 392.934 1228.31 393.203Z" fill="#393936"/>
<path d="M1247.68 398.017C1248.83 398.286 1250 397.56 1250.26 396.407C1250.53 395.239 1249.81 394.087 1248.66 393.818C1247.51 393.55 1246.34 394.276 1246.08 395.429C1245.81 396.597 1246.53 397.749 1247.68 398.017Z" fill="#393936"/>
<path d="M1267.89 393.092C1268.38 392.95 1268.9 392.934 1269.4 393.045C1271.42 393.518 1272.38 396.012 1271.95 398.696C1271.26 403.131 1267.78 404.315 1263.25 402.8" fill="#927C89"/>
<path d="M1276.39 373.818C1283.57 351.972 1280.28 350.03 1266.74 344.821C1266.7 344.821 1253.46 341.19 1243.79 341.001C1241.28 340.969 1238.84 341.822 1236.88 343.416C1234.93 345.01 1233.59 347.236 1233.11 349.714C1231.72 356.47 1228.38 372.129 1228.38 372.129C1228.38 372.129 1236.43 377.828 1240.85 378.822C1247.89 380.448 1263.09 379.217 1263 379.454C1260.29 386.131 1263.77 390.582 1263.77 390.582C1263.55 392.682 1263.12 394.75 1262.53 396.77C1261.66 399.959 1260.09 402.926 1257.95 405.436C1255.79 407.946 1253.27 409.761 1250.37 408.104C1232.74 398.001 1230.51 406.226 1228.37 405.026C1224.12 402.642 1224.04 394.292 1224.04 394.292C1224.04 394.292 1221.13 412.445 1238.9 418.601C1238.9 418.601 1247.37 422.011 1253.79 415.223C1258.06 411.829 1261.91 407.946 1265.26 403.653L1265.49 403.29C1266.37 402.106 1265.64 394.734 1270.63 393.645C1273.2 393.092 1272.54 385.5 1276.38 373.818H1276.39Z" fill="#201E23"/>
<path d="M1237.42 409.935C1236.49 409.73 1235.62 409.335 1234.85 408.783C1234.66 408.641 1234.54 408.436 1234.51 408.215C1234.48 407.978 1234.51 407.757 1234.65 407.552C1234.71 407.457 1234.79 407.378 1234.89 407.315C1234.98 407.252 1235.07 407.204 1235.18 407.189C1235.29 407.173 1235.4 407.173 1235.51 407.189C1235.62 407.204 1235.74 407.252 1235.81 407.315C1236.51 407.788 1237.29 408.12 1238.13 408.262C1238.96 408.404 1239.81 408.372 1240.63 408.167C1240.74 408.136 1240.85 408.136 1240.96 408.167C1241.07 408.183 1241.18 408.23 1241.28 408.294C1241.37 408.357 1241.45 408.436 1241.51 408.53C1241.57 408.625 1241.62 408.736 1241.64 408.846C1241.69 409.067 1241.64 409.32 1241.53 409.509C1241.4 409.714 1241.21 409.856 1240.99 409.904C1239.83 410.204 1238.6 410.204 1237.44 409.935H1237.42Z" fill="#B299A0"/>
<path d="M1265.82 453.818H1231.69V458.38H1265.82V453.818Z" fill="#3769C4"/>
<path d="M1265.5 443.858H1231.38V448.42H1265.5V443.858V443.858Z" fill="#3769C4"/>
<path d="M1276.87 438.996H1230.05V434.434H1275.72C1276.31 435.886 1276.71 437.417 1276.88 438.996H1276.87Z" fill="#3769C4"/>
<path d="M1272.73 429.398H1248.56L1250.67 424.836H1267.58C1269.86 426.147 1271.7 427.615 1272.71 429.398H1272.73Z" fill="#3769C4"/>
<path d="M1219.65 429.398H1243.02L1240.98 424.836L1224.1 424.694C1222.28 425.894 1220.75 427.504 1219.65 429.398V429.398Z" fill="#3769C4"/>
<path d="M1276.96 450.898L1267.37 451.277V446.715H1277.1L1276.94 450.898H1276.96Z" fill="#3769C4"/>
<path d="M1251.49 421.711C1250.66 422.974 1250.31 424.395 1248.72 426.652L1248.67 418.901C1249.67 418.112 1249.92 418.175 1251.4 417.323L1251.49 421.711V421.711Z" fill="#6B6371"/>
<path d="M1269.96 470.756C1269.03 470.756 1268.07 470.693 1267.09 470.63C1266.11 470.566 1265.11 470.503 1264.08 470.503H1243.01L1242.43 468.293L1264.1 468.735C1265.19 468.735 1266.23 468.814 1267.22 468.862C1270.33 469.051 1271.83 468.593 1273.48 466.967C1275.24 465.184 1275.51 458.301 1275.21 451.908L1277.81 451.813C1277.51 459.896 1277.26 467.062 1275.06 469.256C1273.47 470.803 1272.24 470.756 1269.96 470.756V470.756Z" fill="#6B6371"/>
<path d="M1267.11 452.966V438.096" stroke="#3769C4" stroke-width="1.4"/>
<path d="M1265.66 486.604H1221V494.244H1265.66V486.604Z" fill="url(#paint15_linear_3362_6556)"/>
</g>
<path d="M1235.61 469.622H1269.69C1270.37 469.622 1271.02 469.895 1271.52 470.375C1272 470.854 1272.27 471.521 1272.27 472.206C1272.27 472.891 1272 473.541 1271.52 474.037C1271.04 474.517 1270.37 474.79 1269.69 474.79H1235.61V469.639V469.622Z" fill="url(#paint16_linear_3362_6556)"/>
<path d="M1177.47 434.843L1179.13 431.934C1179.7 430.941 1180.52 430.119 1181.51 429.555C1182.51 428.99 1183.62 428.682 1184.77 428.682L1229.54 428.853C1230.27 428.853 1230.99 429.092 1231.57 429.52C1232.16 429.948 1232.6 430.564 1232.82 431.266L1245.36 469.759C1245.94 474.14 1242.28 474.568 1239.5 474.705L1229.95 434.929C1229.73 434.261 1229.31 433.696 1228.73 433.303C1228.17 432.909 1227.48 432.704 1226.78 432.738L1177.47 434.826V434.843Z" fill="#41166C"/>
<path d="M1239.52 474.79H1192.47C1191.91 474.79 1191.36 474.619 1190.9 474.277C1190.43 473.951 1190.09 473.472 1189.92 472.942L1177.68 436.178C1177.54 435.767 1177.51 435.339 1177.58 434.911C1177.64 434.483 1177.8 434.09 1178.05 433.747C1178.31 433.405 1178.64 433.114 1179.01 432.926C1179.39 432.737 1179.82 432.635 1180.25 432.635H1227.29C1227.86 432.635 1228.41 432.806 1228.87 433.148C1229.33 433.473 1229.67 433.953 1229.85 434.483L1242.1 471.247C1242.24 471.658 1242.27 472.086 1242.21 472.514C1242.14 472.942 1241.98 473.335 1241.73 473.678C1241.47 474.02 1241.14 474.311 1240.77 474.499C1240.39 474.687 1239.96 474.79 1239.54 474.79H1239.52Z" fill="url(#paint17_linear_3362_6556)"/>
<path opacity="0.8" d="M1214.49 456.477L1213.39 450.829C1213.36 450.658 1213.29 450.504 1213.17 450.367C1213.07 450.23 1212.91 450.127 1212.76 450.059L1207.11 447.731C1206.94 447.663 1206.75 447.629 1206.58 447.663C1206.39 447.68 1206.22 447.766 1206.08 447.868L1201.66 451.206C1201.51 451.326 1201.39 451.48 1201.32 451.668C1201.25 451.856 1201.24 452.044 1201.27 452.25L1202.35 457.881C1202.38 458.052 1202.45 458.206 1202.57 458.343C1202.67 458.48 1202.83 458.583 1202.98 458.651L1208.63 460.979C1208.8 461.047 1208.97 461.064 1209.16 461.047C1209.33 461.03 1209.51 460.962 1209.66 460.842L1214.08 457.504C1214.23 457.384 1214.35 457.23 1214.42 457.042C1214.49 456.854 1214.5 456.666 1214.47 456.477H1214.49Z" fill="#783CAE"/>
<path d="M761 576.98H158.507C150.499 576.98 144 570.432 144 562.365C144 554.297 150.499 547.75 158.507 547.75H192.128C212.269 547.75 228.345 531.148 228.486 510.858C228.627 490.567 244.844 474.493 264.843 474.493H339.269C348.907 474.493 358.162 470.641 364.983 463.77L395 450L455.465 463.77H761V576.98Z" fill="#1A1A30"/>
<path d="M342.603 502.344C345.912 502.344 348.594 499.456 348.594 495.893C348.594 492.329 345.912 489.441 342.603 489.441C339.295 489.441 336.612 492.329 336.612 495.893C336.612 499.456 339.295 502.344 342.603 502.344Z" fill="#5ECB96"/>
<path d="M321.196 501.851C324.606 501.044 326.718 497.62 325.913 494.203C325.108 490.786 321.692 488.67 318.282 489.476C314.872 490.283 312.761 493.707 313.566 497.124C314.37 500.541 317.787 502.658 321.196 501.851Z" fill="#FE5487"/>
<path d="M296.98 502.344C300.543 502.344 303.432 499.456 303.432 495.893C303.432 492.329 300.543 489.441 296.98 489.441C293.417 489.441 290.528 492.329 290.528 495.893C290.528 499.456 293.417 502.344 296.98 502.344Z" fill="url(#paint18_linear_3362_6556)"/>
<path d="M262.914 474.694H155.043C149.453 474.694 144.922 479.233 144.922 484.832C144.922 490.432 149.453 494.971 155.043 494.971H262.914C268.503 494.971 273.035 490.432 273.035 484.832C273.035 479.233 268.503 474.694 262.914 474.694Z" fill="#1A1A30"/>
<path d="M687 576.98H1289.49C1297.5 576.98 1304 570.432 1304 562.365C1304 554.297 1297.5 547.75 1289.49 547.75H1255.87C1235.73 547.75 1219.66 531.148 1219.51 510.858C1219.37 490.567 1203.16 474.493 1183.16 474.493H1108.73C1099.09 474.493 1089.84 470.641 1083.02 463.77L1049 463.77L992.535 463.77H687V576.98Z" fill="#1A1A30"/>
<path d="M1114.99 502.344C1111.68 502.344 1109 499.456 1109 495.893C1109 492.329 1111.68 489.441 1114.99 489.441C1118.3 489.441 1120.98 492.329 1120.98 495.893C1120.98 499.456 1118.3 502.344 1114.99 502.344Z" fill="#5ECB96"/>
<path d="M1136.4 501.851C1132.99 501.044 1130.88 497.62 1131.68 494.203C1132.49 490.786 1135.9 488.67 1139.31 489.476C1142.72 490.283 1144.83 493.707 1144.03 497.124C1143.22 500.541 1139.81 502.658 1136.4 501.851Z" fill="#FE5487"/>
<path d="M1160.61 502.344C1157.05 502.344 1154.16 499.456 1154.16 495.893C1154.16 492.329 1157.05 489.441 1160.61 489.441C1164.18 489.441 1167.07 492.329 1167.07 495.893C1167.07 499.456 1164.18 502.344 1160.61 502.344Z" fill="url(#paint19_linear_3362_6556)"/>
<path d="M1185.09 474.694H1292.96C1298.55 474.694 1303.08 479.233 1303.08 484.832C1303.08 490.432 1298.55 494.971 1292.96 494.971H1185.09C1179.5 494.971 1174.97 490.432 1174.97 484.832C1174.97 479.233 1179.5 474.694 1185.09 474.694Z" fill="#1A1A30"/>
<path d="M204 104H217V92H204V104Z" fill="#1A1A30"/>
<path d="M202.055 92H218.945C220.074 92 221 90.8934 221 89.5C221 88.1066 220.091 87 218.945 87H202.055C200.926 87 200 88.1066 200 89.5C200 90.8934 200.909 92 202.055 92Z" fill="black"/>
<path d="M271.425 0H148.575C146.601 0 145 1.60689 145 3.58908V83.4109C145 85.3931 146.601 87 148.575 87H271.425C273.399 87 275 85.3931 275 83.4109V3.58908C275 1.60689 273.399 0 271.425 0Z" fill="black"/>
<path d="M270 81V6L151 6V81L270 81Z" fill="url(#paint20_linear_3362_6556)"/>
<path d="M179 230H192V195H179V230Z" fill="#1A1A30"/>
<path d="M283.472 334.5L292.712 325.239L188.039 220.422L178.799 229.682L283.472 334.5Z" fill="#1A1A30"/>
<path d="M432.266 334.65L432.224 321.568L284.092 321.777L284.134 334.859L432.266 334.65Z" fill="#1A1A30"/>
<path d="M177.055 195H193.945C195.074 195 196 194.115 196 193C196 191.885 195.091 191 193.945 191H177.055C175.926 191 175 191.885 175 193C175 194.115 175.909 195 177.055 195Z" fill="black"/>
<path d="M185 230C187.209 230 189 228.209 189 226C189 223.791 187.209 222 185 222C182.791 222 181 223.791 181 226C181 228.209 182.791 230 185 230Z" fill="#1A1A30"/>
<path d="M246.425 104H123.575C121.601 104 120 105.607 120 107.589V187.411C120 189.393 121.601 191 123.575 191H246.425C248.399 191 250 189.393 250 187.411V107.589C250 105.607 248.399 104 246.425 104Z" fill="black"/>
<path d="M245 185V110L126 110V185H245Z" fill="url(#paint21_linear_3362_6556)"/>
<path d="M165.033 55.5906V54.1296C169.143 54.1296 173.095 50.5738 175.923 44.3424C173.095 38.111 169.143 34.5553 165.033 34.5553V33.0942C169.459 33.0942 173.71 37.0197 176.696 43.8672L176.906 44.3424L176.696 44.8177C173.71 51.6652 169.477 55.5906 165.033 55.5906V55.5906Z" fill="url(#paint22_linear_3362_6556)"/>
<path d="M187.814 55.5906C183.388 55.5906 179.137 51.6652 176.151 44.8177L175.94 44.3424L176.151 43.8672C179.137 37.0197 183.37 33.0942 187.814 33.0942C192.257 33.0942 196.49 37.0197 199.476 43.8672L199.687 44.3424L199.476 44.8177C196.49 51.6652 192.257 55.5906 187.814 55.5906ZM176.924 44.3248C179.752 50.5562 183.704 54.112 187.814 54.112C191.924 54.112 195.876 50.5562 198.703 44.3248C195.876 38.0934 191.924 34.5377 187.814 34.5377C183.704 34.5377 179.752 38.0934 176.924 44.3248V44.3248Z" fill="url(#paint23_linear_3362_6556)"/>
<path d="M210.576 55.5906C206.15 55.5906 201.9 51.6652 198.914 44.8177L198.703 44.3424L198.914 43.8672C201.9 37.0197 206.133 33.0942 210.576 33.0942C215.02 33.0942 219.253 37.0197 222.239 43.8672L222.45 44.3424L222.239 44.8177C219.253 51.6652 215.02 55.5906 210.576 55.5906ZM199.687 44.3248C202.515 50.5562 206.466 54.112 210.576 54.112C214.686 54.112 218.638 50.5562 221.466 44.3248C218.638 38.0934 214.686 34.5377 210.576 34.5377C206.466 34.5377 202.515 38.0934 199.687 44.3248V44.3248Z" fill="url(#paint24_linear_3362_6556)"/>
<path d="M233.34 55.5906C228.914 55.5906 224.663 51.6652 221.678 44.8177L221.467 44.3424L221.678 43.8672C224.663 37.0197 228.896 33.0942 233.34 33.0942C237.784 33.0942 242.017 37.0197 245.003 43.8672L245.213 44.3424L245.003 44.8177C242.017 51.6652 237.784 55.5906 233.34 55.5906ZM222.45 44.3248C225.278 50.5562 229.23 54.112 233.34 54.112C237.45 54.112 241.402 50.5562 244.23 44.3248C241.402 38.0934 237.45 34.5377 233.34 34.5377C229.23 34.5377 225.278 38.0934 222.45 44.3248V44.3248Z" fill="url(#paint25_linear_3362_6556)"/>
<path d="M256.103 55.5906C251.677 55.5906 247.426 51.6652 244.44 44.8177L244.229 44.3424L244.44 43.8672C247.426 37.0197 251.659 33.0942 256.103 33.0942V34.5553C251.993 34.5553 248.041 38.111 245.213 44.3424C248.041 50.5738 251.993 54.1296 256.103 54.1296V55.5906V55.5906Z" fill="url(#paint26_linear_3362_6556)"/>
<g filter="url(#filter0_d_3362_6556)">
<line x1="146.219" y1="121.247" x2="146.219" y2="121.016" stroke="#60238F" stroke-width="5" stroke-linecap="round"/>
<line x1="146.219" y1="135.555" x2="146.219" y2="135.324" stroke="#60238F" stroke-width="5" stroke-linecap="round"/>
<line x1="146.219" y1="148.67" x2="146.219" y2="148.44" stroke="#60238F" stroke-width="5" stroke-linecap="round"/>
<line x1="146.219" y1="161.786" x2="146.219" y2="161.555" stroke="#60238F" stroke-width="5" stroke-linecap="round"/>
<line x1="146.219" y1="174.901" x2="146.219" y2="174.671" stroke="#60238F" stroke-width="5" stroke-linecap="round"/>
<line x1="160.72" y1="119.632" x2="206.605" y2="119.632" stroke="url(#paint27_linear_3362_6556)" stroke-width="3" stroke-linecap="round"/>
<line x1="160.72" y1="166.131" x2="189.912" y2="166.131" stroke="url(#paint28_linear_3362_6556)" stroke-width="3" stroke-linecap="round"/>
<line x1="173.835" y1="131.555" x2="219.72" y2="131.555" stroke="url(#paint29_linear_3362_6556)" stroke-width="3" stroke-linecap="round"/>
<line x1="166.68" y1="144.67" x2="194.68" y2="144.67" stroke="url(#paint30_linear_3362_6556)" stroke-width="3" stroke-linecap="round"/>
<line x1="182.183" y1="175.671" x2="210.183" y2="175.671" stroke="url(#paint31_linear_3362_6556)" stroke-width="3" stroke-linecap="round"/>
<line x1="184.565" y1="155.401" x2="225.681" y2="155.401" stroke="url(#paint32_linear_3362_6556)" stroke-width="3" stroke-linecap="round"/>
</g>
<path d="M405 325C405 319.477 409.477 315 415 315H420V341H415C409.477 341 405 336.523 405 331V325Z" fill="#36366B"/>
<path d="M1272.27 104H1259.27V92H1272.27V104Z" fill="#1A1A30"/>
<path d="M1274.21 92H1257.32C1256.19 92 1255.27 90.8934 1255.27 89.5C1255.27 88.1066 1256.18 87 1257.32 87H1274.21C1275.34 87 1276.27 88.1066 1276.27 89.5C1276.27 90.8934 1275.36 92 1274.21 92Z" fill="black"/>
<path d="M1204.84 0H1327.69C1329.67 0 1331.27 1.60689 1331.27 3.58908V83.4109C1331.27 85.3931 1329.67 87 1327.69 87H1204.84C1202.87 87 1201.27 85.3931 1201.27 83.4109V3.58908C1201.27 1.60689 1202.87 0 1204.84 0Z" fill="black"/>
<path d="M1206.27 81V6L1325.27 6V81L1206.27 81Z" fill="url(#paint33_linear_3362_6556)"/>
<path d="M1297.27 230H1284.27V195H1297.27V230Z" fill="#1A1A30"/>
<path d="M1192.79 334.5L1183.55 325.239L1288.23 220.422L1297.47 229.682L1192.79 334.5Z" fill="#1A1A30"/>
<path d="M1044 334.65L1044.04 321.568L1192.17 321.777L1192.13 334.859L1044 334.65Z" fill="#1A1A30"/>
<path d="M1299.21 195H1282.32C1281.19 195 1280.27 194.115 1280.27 193C1280.27 191.885 1281.18 191 1282.32 191H1299.21C1300.34 191 1301.27 191.885 1301.27 193C1301.27 194.115 1300.36 195 1299.21 195Z" fill="black"/>
<path d="M1291.27 230C1289.06 230 1287.27 228.209 1287.27 226C1287.27 223.791 1289.06 222 1291.27 222C1293.48 222 1295.27 223.791 1295.27 226C1295.27 228.209 1293.48 230 1291.27 230Z" fill="#1A1A30"/>
<path d="M1229.84 104H1352.69C1354.67 104 1356.27 105.607 1356.27 107.589V187.411C1356.27 189.393 1354.67 191 1352.69 191H1229.84C1227.87 191 1226.27 189.393 1226.27 187.411V107.589C1226.27 105.607 1227.87 104 1229.84 104Z" fill="black"/>
<path d="M1231.27 185V110L1350.27 110V185H1231.27Z" fill="url(#paint34_linear_3362_6556)"/>
<g filter="url(#filter1_d_3362_6556)">
<line x1="2.5" y1="-2.5" x2="2.26926" y2="-2.5" transform="matrix(4.37114e-08 1 1 -4.37114e-08 1332.55 118.747)" stroke="#60238F" stroke-width="5" stroke-linecap="round"/>
<line x1="2.5" y1="-2.5" x2="2.26926" y2="-2.5" transform="matrix(4.37114e-08 1 1 -4.37114e-08 1332.55 133.055)" stroke="#60238F" stroke-width="5" stroke-linecap="round"/>
<line x1="2.5" y1="-2.5" x2="2.26926" y2="-2.5" transform="matrix(4.37114e-08 1 1 -4.37114e-08 1332.55 146.17)" stroke="#60238F" stroke-width="5" stroke-linecap="round"/>
<line x1="2.5" y1="-2.5" x2="2.26926" y2="-2.5" transform="matrix(4.37114e-08 1 1 -4.37114e-08 1332.55 159.286)" stroke="#60238F" stroke-width="5" stroke-linecap="round"/>
<line x1="2.5" y1="-2.5" x2="2.26926" y2="-2.5" transform="matrix(4.37114e-08 1 1 -4.37114e-08 1332.55 172.401)" stroke="#60238F" stroke-width="5" stroke-linecap="round"/>
<line x1="1.5" y1="-1.5" x2="47.3849" y2="-1.5" transform="matrix(-1 0 0 1 1317.05 121.132)" stroke="url(#paint35_linear_3362_6556)" stroke-width="3" stroke-linecap="round"/>
<line x1="1.5" y1="-1.5" x2="30.6925" y2="-1.5" transform="matrix(-1 0 0 1 1317.05 167.631)" stroke="url(#paint36_linear_3362_6556)" stroke-width="3" stroke-linecap="round"/>
<line x1="1.5" y1="-1.5" x2="47.3849" y2="-1.5" transform="matrix(-1 0 0 1 1303.93 133.055)" stroke="url(#paint37_linear_3362_6556)" stroke-width="3" stroke-linecap="round"/>
<line x1="1.5" y1="-1.5" x2="29.5002" y2="-1.5" transform="matrix(-1 0 0 1 1311.09 146.17)" stroke="url(#paint38_linear_3362_6556)" stroke-width="3" stroke-linecap="round"/>
<line x1="1.5" y1="-1.5" x2="29.5002" y2="-1.5" transform="matrix(-1 0 0 1 1295.58 177.171)" stroke="url(#paint39_linear_3362_6556)" stroke-width="3" stroke-linecap="round"/>
<line x1="1.5" y1="-1.5" x2="42.6157" y2="-1.5" transform="matrix(-1 0 0 1 1293.2 156.901)" stroke="url(#paint40_linear_3362_6556)" stroke-width="3" stroke-linecap="round"/>
</g>
<path d="M1071.27 325C1071.27 319.477 1066.79 315 1061.27 315H1056.27V341H1061.27C1066.79 341 1071.27 336.523 1071.27 331V325Z" fill="#36366B"/>
<g opacity="0.7">
<path d="M1276.52 56.7427H1261.46L1253.93 43.6765L1261.46 30.6104H1276.52L1284.05 43.6765L1276.52 56.7427ZM1261.89 55.9971H1276.08L1283.18 43.6765L1276.08 31.356H1261.89L1254.78 43.6765L1261.89 55.9971Z" fill="url(#paint41_linear_3362_6556)"/>
<path d="M1283.62 46.4282C1285.14 46.4282 1286.37 45.1962 1286.37 43.6765C1286.37 42.1568 1285.14 40.9248 1283.62 40.9248C1282.11 40.9248 1280.88 42.1568 1280.88 43.6765C1280.88 45.1962 1282.11 46.4282 1283.62 46.4282Z" fill="url(#paint42_linear_3362_6556)"/>
<path d="M1257.03 44.2838C1257.37 42.8048 1256.46 41.3227 1254.98 40.9736C1253.51 40.6245 1252.03 41.5406 1251.68 43.0197C1251.33 44.4987 1252.25 45.9808 1253.72 46.3298C1255.2 46.6789 1256.68 45.7629 1257.03 44.2838Z" fill="url(#paint43_linear_3362_6556)"/>
<path d="M1261.73 33.7354C1263.24 33.7354 1264.47 32.5034 1264.47 30.9836C1264.47 29.4639 1263.24 28.2319 1261.73 28.2319C1260.21 28.2319 1258.98 29.4639 1258.98 30.9836C1258.98 32.5034 1260.21 33.7354 1261.73 33.7354Z" fill="url(#paint44_linear_3362_6556)"/>
<path d="M1276.38 33.7354C1277.89 33.7354 1279.12 32.5034 1279.12 30.9836C1279.12 29.4639 1277.89 28.2319 1276.38 28.2319C1274.86 28.2319 1273.63 29.4639 1273.63 30.9836C1273.63 32.5034 1274.86 33.7354 1276.38 33.7354Z" fill="url(#paint45_linear_3362_6556)"/>
<path d="M1283.25 18.0489L1275.94 30.7495L1276.58 31.1222L1283.89 18.4216L1283.25 18.0489Z" fill="url(#paint46_linear_3362_6556)"/>
<path d="M1286.35 18.7384C1286.59 17.2383 1285.58 15.8248 1284.08 15.5813C1282.58 15.3378 1281.17 16.3565 1280.93 17.8566C1280.69 19.3567 1281.71 20.7701 1283.2 21.0136C1284.7 21.2571 1286.11 20.2385 1286.35 18.7384Z" fill="url(#paint47_linear_3362_6556)"/>
<path d="M1254.7 18.0969L1254.05 18.4697L1261.37 31.1691L1262.01 30.7962L1254.7 18.0969Z" fill="url(#paint48_linear_3362_6556)"/>
<path d="M1255.01 20.9883C1256.49 20.6392 1257.4 19.1572 1257.05 17.6781C1256.7 16.199 1255.22 15.283 1253.75 15.6321C1252.27 15.9812 1251.36 17.4632 1251.71 18.9423C1252.06 20.4214 1253.53 21.3374 1255.01 20.9883Z" fill="url(#paint49_linear_3362_6556)"/>
<path d="M1276.64 56.1609L1275.99 56.5337L1283.31 69.233L1283.95 68.8602L1276.64 56.1609Z" fill="url(#paint50_linear_3362_6556)"/>
<path d="M1283.62 71.8149C1285.14 71.8149 1286.37 70.5829 1286.37 69.0632C1286.37 67.5435 1285.14 66.3115 1283.62 66.3115C1282.11 66.3115 1280.88 67.5435 1280.88 69.0632C1280.88 70.5829 1282.11 71.8149 1283.62 71.8149Z" fill="url(#paint51_linear_3362_6556)"/>
<path d="M1261.31 56.1344L1254 68.835L1254.64 69.2077L1261.95 56.5071L1261.31 56.1344Z" fill="url(#paint52_linear_3362_6556)"/>
<path d="M1254.38 71.8154C1255.89 71.8154 1257.12 70.5834 1257.12 69.0637C1257.12 67.544 1255.89 66.312 1254.38 66.312C1252.86 66.312 1251.63 67.544 1251.63 69.0637C1251.63 70.5834 1252.86 71.8154 1254.38 71.8154Z" fill="url(#paint53_linear_3362_6556)"/>
<path d="M1261.73 59.1221C1263.24 59.1221 1264.47 57.8901 1264.47 56.3704C1264.47 54.8506 1263.24 53.6187 1261.73 53.6187C1260.21 53.6187 1258.98 54.8506 1258.98 56.3704C1258.98 57.8901 1260.21 59.1221 1261.73 59.1221Z" fill="url(#paint54_linear_3362_6556)"/>
<path d="M1279.01 56.985C1279.36 55.5059 1278.45 54.0239 1276.97 53.6748C1275.49 53.3257 1274.02 54.2417 1273.67 55.7208C1273.32 57.1999 1274.23 58.6819 1275.71 59.031C1277.18 59.3801 1278.66 58.4641 1279.01 56.985Z" fill="url(#paint55_linear_3362_6556)"/>
<path d="M1254.38 43.3042H1239.75V44.0498H1254.38V43.3042Z" fill="url(#paint56_linear_3362_6556)"/>
<path d="M1239.75 46.4282C1241.26 46.4282 1242.49 45.1962 1242.49 43.6765C1242.49 42.1568 1241.26 40.9248 1239.75 40.9248C1238.23 40.9248 1237 42.1568 1237 43.6765C1237 45.1962 1238.23 46.4282 1239.75 46.4282Z" fill="url(#paint57_linear_3362_6556)"/>
<path d="M1298.25 43.3042H1283.62V44.0498H1298.25V43.3042Z" fill="url(#paint58_linear_3362_6556)"/>
<path d="M1298.25 46.4282C1299.77 46.4282 1301 45.1962 1301 43.6765C1301 42.1568 1299.77 40.9248 1298.25 40.9248C1296.74 40.9248 1295.51 42.1568 1295.51 43.6765C1295.51 45.1962 1296.74 46.4282 1298.25 46.4282Z" fill="url(#paint59_linear_3362_6556)"/>
</g>
<path d="M433.014 531.174H453.299V493.45H433.014V531.174Z" fill="#15375C"/>
<path d="M349.455 303.974L344.548 295.971L361.851 285.36L366.758 293.363L349.455 303.974Z" fill="#15375C"/>
<path d="M329.531 252.069L327.399 248.594L321.109 252.451C318.898 253.807 316.024 253.119 314.669 250.909L310.235 243.679C307.709 239.56 302.308 238.267 298.186 240.795C295.975 242.151 293.101 241.463 291.746 239.253L278.997 218.464C277.642 216.254 278.331 213.381 280.543 212.025L295.334 202.954L293.202 199.478L278.411 208.549C274.289 211.077 272.993 216.477 275.519 220.596L288.268 241.386C290.794 245.505 296.196 246.798 300.317 244.27C302.529 242.914 305.402 243.602 306.758 245.812L311.191 253.042C313.718 257.161 319.119 258.454 323.241 255.927L329.531 252.069V252.069Z" fill="#15375C"/>
<path d="M338.501 260.917L333.37 264.063L294.676 200.966L299.806 197.82L338.501 260.917Z" fill="#15375C"/>
<path d="M342.536 258.441L303.829 195.323L305.868 194.072L344.576 257.19L342.536 258.441V258.441ZM288.565 204.683L290.605 203.432L329.312 266.551L327.273 267.801L288.565 204.683Z" fill="#4DA0FD"/>
<path d="M319.559 230.078L314.429 233.225L307.903 222.583L313.034 219.437L319.559 230.078Z" fill="#4DA0FD"/>
<path d="M327.273 267.802L336.483 282.82L338.394 281.648L332.342 271.779L345.823 263.511L351.876 273.38L353.786 272.209L344.576 257.191L327.273 267.802Z" fill="#4DA0FD"/>
<path d="M359.395 264.784L367.434 277.892C368.429 279.516 367.92 281.639 366.295 282.635L340.126 298.683C338.502 299.679 336.378 299.171 335.383 297.548L327.344 284.439C326.348 282.816 326.858 280.693 328.482 279.696L354.651 263.648C356.276 262.652 358.399 263.161 359.395 264.784Z" fill="#4DA0FD"/>
<path d="M329.774 249.528C330.217 250.251 329.99 251.197 329.267 251.64C328.544 252.084 327.598 251.857 327.155 251.134C326.712 250.412 326.939 249.466 327.662 249.023C328.385 248.579 329.331 248.805 329.774 249.528Z" fill="#255E9D"/>
<path d="M338.633 285.988C337.216 286.857 335.347 286.409 334.478 284.993C333.61 283.577 334.059 281.708 335.476 280.839C336.892 279.97 338.762 280.418 339.63 281.834C340.499 283.25 340.05 285.119 338.633 285.988Z" fill="#15375C"/>
<path d="M342.505 281.222L341.491 279.57C340.903 278.611 341.204 277.355 342.165 276.766L354.186 269.394C355.147 268.805 356.402 269.105 356.991 270.065L358.004 271.717C358.593 272.677 358.291 273.932 357.331 274.521L345.309 281.894C344.349 282.483 343.093 282.182 342.505 281.222Z" fill="#255E9D"/>
<path d="M345.282 279.874C344.681 280.243 343.919 280.06 343.55 279.459C343.182 278.859 343.365 278.097 343.966 277.728C344.567 277.36 345.329 277.542 345.697 278.143C346.066 278.744 345.883 279.505 345.282 279.874ZM349.118 274.569C349.719 274.2 350.481 274.383 350.849 274.983C351.218 275.584 351.035 276.346 350.434 276.714C349.833 277.083 349.071 276.901 348.703 276.3C348.334 275.699 348.517 274.937 349.118 274.569ZM354.27 271.409C354.871 271.041 355.633 271.223 356.002 271.824C356.37 272.424 356.187 273.186 355.586 273.555C354.985 273.923 354.223 273.741 353.855 273.14C353.486 272.539 353.669 271.778 354.27 271.409Z" fill="#D78AFF"/>
<path d="M421.306 174.654L421.171 192.851L399.622 192.73L399.756 174.533L421.306 174.654Z" fill="#4DA0FD"/>
<path d="M348.288 195.72C348.977 194.245 349.345 192.636 349.363 191.019L349.539 167.322L344.707 167.307L344.531 191.004C344.5 193.402 343.384 195.654 341.379 197.339C339.374 199.024 336.672 199.936 333.861 199.919C328.01 199.889 323.266 195.845 323.31 190.881L323.328 187.207C323.392 180.005 316.501 174.108 307.96 174.074L296.768 174.022L296.753 178.102L307.945 178.154C310.784 178.181 313.452 179.125 315.448 180.819C317.445 182.513 318.526 184.794 318.506 187.169L318.488 190.843C318.424 198.045 325.315 203.942 333.856 203.976C337.979 203.998 341.869 202.67 344.81 200.215C346.375 198.924 347.567 197.4 348.344 195.738L348.288 195.72Z" fill="#15375C"/>
<path d="M298.016 193.558L292 193.388L292.65 170L298.666 170.17L298.016 193.558Z" fill="#15375C"/>
<path d="M286.028 165.912L307.577 166.01L307.55 170.565L286.001 170.467L286.028 165.912Z" fill="#95C6FD"/>
<path d="M347.08 168.999L307.826 168.778L307.844 166.387L347.098 166.608L347.08 168.999Z" fill="#15375C"/>
<path d="M403.638 180.634L403.593 186.649L382.044 186.528L382.088 180.512L403.638 180.634Z" fill="#95C6FD"/>
<path d="M368.381 180.463L368.337 186.478L305.626 186.125L305.67 180.11L368.381 180.463Z" fill="#4DA0FD"/>
<path d="M388.823 192.34L385.127 192.3L385.371 175.715L389.067 175.755L388.823 192.34Z" fill="#15375C"/>
<path d="M389.154 189.763L382.03 189.723L382.122 177.239L389.246 177.28L389.154 189.763Z" fill="#4DA0FD"/>
<path d="M351.019 170.331L343.895 170.283L343.915 166.88C343.928 165.207 345.542 163.878 347.496 163.88C349.477 163.892 351.051 165.255 351.05 166.905L351.03 170.308L351.019 170.331Z" fill="#95C6FD"/>
<path d="M421.322 174.641L421.188 192.838L415.793 192.808L415.928 174.611L421.322 174.641Z" fill="#15375C"/>
<path d="M368.311 193.955L389.173 194.093L389.204 191.831L375.455 191.765L375.582 175.167L389.321 175.257L389.313 173.009L368.479 172.88L368.311 193.955Z" fill="#4DA0FD"/>
<path d="M306.619 194.911C309.547 199.686 308.048 205.932 303.27 208.863C298.491 211.793 292.244 210.297 289.316 205.522C286.388 200.747 287.887 194.501 292.665 191.57C297.443 188.64 303.69 190.136 306.619 194.911Z" fill="#4DA0FD"/>
<path d="M293.018 196.432C295.121 193.696 299.02 193.165 301.777 195.253C304.513 197.354 305.042 201.251 302.952 204.009C300.849 206.745 296.95 207.276 294.193 205.189C291.457 203.087 290.928 199.19 293.018 196.432Z" fill="#15375C"/>
<path d="M335.462 404.673C337.618 405.547 339.527 406.734 341.16 408.135C350.595 416.23 361.352 422.69 372.324 428.559L373.547 429.215C393.279 439.806 414.566 447.796 436.805 450.58C441.145 451.112 445.442 452.63 449.429 455.214C461.907 463.285 466.566 479.767 460.18 493.189C452.769 508.788 433.941 514.866 418.914 506.801C415.527 504.982 412.593 502.58 410.259 499.812C396.199 483.275 378.487 470.233 359.359 459.987L353.838 457.023C343.36 451.4 332.196 447.246 320.945 443.329C319.944 442.973 318.945 442.538 317.973 442.016C307.244 436.258 303.673 422.421 310.727 412.085C316.127 404.195 326.591 401.063 335.43 404.656L335.462 404.673Z" fill="#4DA0FD"/>
<path d="M425.135 495.269C433.354 499.68 443.618 496.583 448 488.368C452.407 480.147 449.307 469.876 441.088 465.465C432.869 461.054 422.605 464.151 418.199 472.373C413.793 480.595 416.892 490.865 425.104 495.252L425.135 495.269Z" fill="#15375C"/>
<path d="M376.051 311.654C375.693 313.262 375.088 314.711 374.304 316.024C369.759 323.541 354.429 367.421 351.59 375.726L351.27 376.67C346.188 391.638 343.094 407.396 343.737 423.221C343.855 426.308 343.319 429.491 341.996 432.557C337.822 442.194 326.885 447.329 316.793 444.441C305.071 441.093 298.668 428.667 302.526 417.249C303.407 414.653 304.726 412.375 306.392 410.404C316.284 398.708 323.285 384.843 328.229 370.336L341.747 330.521C344.448 322.564 346.048 314.309 347.468 306.029C347.607 305.287 347.78 304.556 348.032 303.814C350.79 295.69 360.021 291.591 368.026 295.311C374.145 298.163 377.528 305.087 376.084 311.666L376.051 311.654Z" fill="#255E9D"/>
<path d="M325.436 411.494C331.671 413.616 335.021 420.415 332.893 426.63C330.775 432.867 323.98 436.215 317.767 434.082C311.531 431.961 308.181 425.161 310.31 418.947C312.427 412.71 319.223 409.362 325.436 411.494V411.494Z" fill="#15375C"/>
<path d="M356.785 306.773C355.835 309.571 357.327 312.598 360.124 313.55C362.922 314.502 365.947 313.011 366.897 310.213C367.847 307.415 366.356 304.388 363.558 303.436C360.76 302.484 357.735 303.975 356.785 306.773Z" fill="#15375C"/>
<path d="M387.939 559.479H498.348C501.62 559.479 504.262 562.124 504.262 565.397V577.46H382V565.397C382 562.124 384.643 559.479 387.914 559.479H387.939Z" fill="#1F4775"/>
<path d="M411.924 529.638H474.339C480.932 529.638 486.293 535.002 486.293 541.6V559.479H399.944V541.6C399.944 535.002 405.305 529.638 411.899 529.638H411.924Z" fill="#255E9D"/>
<path d="M1044.25 531.174H1023.96V493.45H1044.25V531.174Z" fill="#15375C"/>
<path d="M1127.81 303.974L1132.71 295.971L1115.41 285.36L1110.5 293.363L1127.81 303.974Z" fill="#15375C"/>
<path d="M1147.73 252.069L1149.86 248.594L1156.15 252.451C1158.36 253.807 1161.24 253.119 1162.59 250.909L1167.03 243.679C1169.55 239.56 1174.95 238.267 1179.08 240.795C1181.29 242.151 1184.16 241.463 1185.52 239.253L1198.27 218.464C1199.62 216.254 1198.93 213.381 1196.72 212.025L1181.93 202.954L1184.06 199.478L1198.85 208.549C1202.97 211.077 1204.27 216.477 1201.74 220.596L1188.99 241.386C1186.47 245.505 1181.07 246.798 1176.95 244.27C1174.73 242.914 1171.86 243.602 1170.5 245.812L1166.07 253.042C1163.54 257.161 1158.14 258.454 1154.02 255.927L1147.73 252.069V252.069Z" fill="#15375C"/>
<path d="M1138.76 260.916L1143.89 264.062L1182.59 200.966L1177.46 197.819L1138.76 260.916Z" fill="#15375C"/>
<path d="M1134.73 258.441L1173.43 195.323L1171.39 194.072L1132.69 257.19L1134.73 258.441V258.441ZM1188.7 204.683L1186.66 203.432L1147.95 266.551L1149.99 267.801L1188.7 204.683Z" fill="#4DA0FD"/>
<path d="M1157.7 230.078L1162.83 233.225L1169.36 222.583L1164.23 219.437L1157.7 230.078Z" fill="#4DA0FD"/>
<path d="M1149.99 267.801L1140.78 282.819L1138.87 281.648L1144.92 271.779L1131.44 263.511L1125.39 273.38L1123.48 272.208L1132.69 257.19L1149.99 267.801Z" fill="#4DA0FD"/>
<path d="M1117.87 264.783L1109.83 277.892C1108.83 279.515 1109.34 281.639 1110.97 282.635L1137.14 298.683C1138.76 299.679 1140.88 299.171 1141.88 297.547L1149.92 284.439C1150.91 282.815 1150.4 280.692 1148.78 279.696L1122.61 263.648C1120.99 262.652 1118.86 263.16 1117.87 264.783Z" fill="#4DA0FD"/>
<path d="M1147.49 249.528C1147.04 250.251 1147.27 251.197 1147.99 251.64C1148.72 252.084 1149.66 251.857 1150.11 251.134C1150.55 250.412 1150.32 249.466 1149.6 249.023C1148.88 248.579 1147.93 248.805 1147.49 249.528Z" fill="#255E9D"/>
<path d="M1138.63 285.988C1140.05 286.857 1141.92 286.409 1142.78 284.993C1143.65 283.577 1143.2 281.708 1141.79 280.839C1140.37 279.97 1138.5 280.418 1137.63 281.834C1136.76 283.25 1137.21 285.119 1138.63 285.988Z" fill="#15375C"/>
<path d="M1134.76 281.222L1135.77 279.57C1136.36 278.611 1136.06 277.355 1135.1 276.766L1123.08 269.394C1122.11 268.805 1120.86 269.105 1120.27 270.065L1119.26 271.717C1118.67 272.677 1118.97 273.932 1119.93 274.521L1131.95 281.894C1132.91 282.483 1134.17 282.182 1134.76 281.222Z" fill="#255E9D"/>
<path d="M1131.98 279.874C1132.58 280.243 1133.34 280.06 1133.71 279.459C1134.08 278.859 1133.9 278.097 1133.3 277.728C1132.69 277.36 1131.93 277.542 1131.56 278.143C1131.2 278.744 1131.38 279.505 1131.98 279.874ZM1128.14 274.569C1127.54 274.2 1126.78 274.383 1126.41 274.983C1126.04 275.584 1126.23 276.346 1126.83 276.714C1127.43 277.083 1128.19 276.901 1128.56 276.3C1128.93 275.699 1128.74 274.937 1128.14 274.569ZM1122.99 271.409C1122.39 271.041 1121.63 271.223 1121.26 271.824C1120.89 272.424 1121.07 273.186 1121.68 273.555C1122.28 273.923 1123.04 273.741 1123.41 273.14C1123.78 272.539 1123.59 271.778 1122.99 271.409Z" fill="#D78AFF"/>
<path d="M1055.96 174.654L1056.09 192.851L1077.64 192.729L1077.5 174.532L1055.96 174.654Z" fill="#4DA0FD"/>
<path d="M1128.97 195.72C1128.28 194.245 1127.92 192.636 1127.9 191.019L1127.72 167.322L1132.56 167.307L1132.73 191.004C1132.76 193.402 1133.88 195.654 1135.88 197.339C1137.89 199.024 1140.59 199.936 1143.4 199.919C1149.25 199.889 1154 195.845 1153.95 190.881L1153.93 187.207C1153.87 180.005 1160.76 174.108 1169.3 174.074L1180.49 174.022L1180.51 178.102L1169.32 178.154C1166.48 178.181 1163.81 179.125 1161.81 180.819C1159.82 182.513 1158.74 184.794 1158.76 187.169L1158.77 190.843C1158.84 198.045 1151.95 203.942 1143.41 203.976C1139.28 203.998 1135.39 202.67 1132.45 200.215C1130.89 198.924 1129.69 197.4 1128.92 195.738L1128.97 195.72Z" fill="#15375C"/>
<path d="M1179.25 193.558L1185.26 193.388L1184.61 170L1178.6 170.17L1179.25 193.558Z" fill="#15375C"/>
<path d="M1191.23 165.912L1169.69 166.01L1169.71 170.565L1191.26 170.467L1191.23 165.912Z" fill="#95C6FD"/>
<path d="M1130.18 168.999L1169.44 168.778L1169.42 166.387L1130.16 166.608L1130.18 168.999Z" fill="#15375C"/>
<path d="M1073.62 180.634L1073.67 186.649L1095.22 186.528L1095.17 180.512L1073.62 180.634Z" fill="#95C6FD"/>
<path d="M1108.88 180.462L1108.93 186.478L1171.64 186.125L1171.59 180.11L1108.88 180.462Z" fill="#4DA0FD"/>
<path d="M1088.44 192.34L1092.13 192.3L1091.89 175.715L1088.19 175.755L1088.44 192.34Z" fill="#15375C"/>
<path d="M1088.11 189.763L1095.23 189.723L1095.14 177.239L1088.01 177.28L1088.11 189.763Z" fill="#4DA0FD"/>
<path d="M1126.24 170.331L1133.37 170.283L1133.35 166.88C1133.33 165.207 1131.72 163.878 1129.77 163.88C1127.78 163.892 1126.21 165.255 1126.21 166.905L1126.23 170.308L1126.24 170.331Z" fill="#95C6FD"/>
<path d="M1055.94 174.641L1056.07 192.838L1061.47 192.808L1061.33 174.611L1055.94 174.641Z" fill="#15375C"/>
<path d="M1108.95 193.954L1088.09 194.093L1088.06 191.83L1101.81 191.764L1101.68 175.167L1087.94 175.256L1087.95 173.008L1108.78 172.879L1108.95 193.954Z" fill="#4DA0FD"/>
<path d="M1170.64 194.91C1167.71 199.686 1169.21 205.932 1173.99 208.862C1178.77 211.792 1185.02 210.297 1187.95 205.522C1190.87 200.746 1189.37 194.5 1184.6 191.57C1179.82 188.64 1173.57 190.135 1170.64 194.91Z" fill="#4DA0FD"/>
<path d="M1184.24 196.432C1182.14 193.696 1178.24 193.165 1175.48 195.253C1172.75 197.354 1172.22 201.251 1174.31 204.009C1176.41 206.745 1180.31 207.276 1183.07 205.189C1185.81 203.087 1186.33 199.19 1184.24 196.432Z" fill="#15375C"/>
<path d="M1141.8 404.673C1139.64 405.547 1137.73 406.734 1136.1 408.135C1126.67 416.23 1115.91 422.69 1104.94 428.559L1103.71 429.215C1083.98 439.806 1062.7 447.796 1040.46 450.58C1036.12 451.112 1031.82 452.63 1027.83 455.214C1015.36 463.285 1010.7 479.767 1017.08 493.189C1024.49 508.788 1043.32 514.866 1058.35 506.801C1061.74 504.982 1064.67 502.58 1067 499.812C1081.06 483.275 1098.77 470.233 1117.9 459.987L1123.42 457.023C1133.9 451.4 1145.07 447.246 1156.32 443.329C1157.32 442.973 1158.32 442.538 1159.29 442.016C1170.02 436.258 1173.59 422.421 1166.54 412.085C1161.14 404.195 1150.67 401.063 1141.83 404.656L1141.8 404.673Z" fill="#4DA0FD"/>
<path d="M1052.13 495.269C1043.91 499.68 1033.64 496.583 1029.26 488.368C1024.86 480.147 1027.96 469.876 1036.17 465.465C1044.39 461.054 1054.66 464.151 1059.06 472.373C1063.47 480.595 1060.37 490.865 1052.16 495.252L1052.13 495.269Z" fill="#15375C"/>
<path d="M1101.21 311.654C1101.57 313.262 1102.17 314.711 1102.96 316.024C1107.5 323.541 1122.83 367.421 1125.67 375.726L1125.99 376.67C1131.07 391.638 1134.17 407.396 1133.53 423.221C1133.41 426.308 1133.94 429.491 1135.27 432.557C1139.44 442.194 1150.38 447.329 1160.47 444.441C1172.19 441.093 1178.59 428.667 1174.74 417.249C1173.85 414.653 1172.54 412.375 1170.87 410.404C1160.98 398.708 1153.98 384.843 1149.03 370.336L1135.52 330.521C1132.81 322.564 1131.21 314.309 1129.79 306.029C1129.66 305.287 1129.48 304.556 1129.23 303.814C1126.47 295.69 1117.24 291.591 1109.24 295.311C1103.12 298.163 1099.73 305.087 1101.18 311.666L1101.21 311.654Z" fill="#255E9D"/>
<path d="M1151.83 411.494C1145.59 413.616 1142.24 420.415 1144.37 426.63C1146.49 432.867 1153.28 436.215 1159.5 434.082C1165.73 431.961 1169.08 425.161 1166.95 418.947C1164.83 412.71 1158.04 409.362 1151.83 411.494V411.494Z" fill="#15375C"/>
<path d="M1120.48 306.773C1121.43 309.571 1119.94 312.598 1117.14 313.55C1114.34 314.502 1111.32 313.011 1110.37 310.213C1109.42 307.415 1110.91 304.388 1113.7 303.436C1116.5 302.484 1119.53 303.975 1120.48 306.773Z" fill="#15375C"/>
<path d="M1089.32 559.479H978.914C975.643 559.479 973 562.124 973 565.397V577.46H1095.26V565.397C1095.26 562.124 1092.62 559.479 1089.35 559.479H1089.32Z" fill="#1F4775"/>
<path d="M1065.34 529.638H1002.92C996.33 529.638 990.969 535.002 990.969 541.6V559.479H1077.32V541.6C1077.32 535.002 1071.96 529.638 1065.36 529.638H1065.34Z" fill="#255E9D"/>
<g filter="url(#filter2_d_3362_6556)">
<path d="M738.19 442.571C741.854 440.468 746.369 440.478 750.023 442.591L796.099 469.26C799.753 471.373 802 475.285 802 479.501L801.909 532.687C801.909 536.913 799.642 540.805 795.977 542.908L749.81 569.425C746.146 571.528 741.631 571.528 737.977 569.405L691.901 542.736C688.247 540.623 686 536.711 686 532.495L686.091 479.309C686.091 475.083 688.358 471.191 692.023 469.088L738.19 442.571V442.571Z" fill="#07131C" fill-opacity="0.25"/>
</g>
<g filter="url(#filter3_d_3362_6556)">
<path d="M738.888 449.38C742.113 447.532 746.079 447.542 749.295 449.4L789.817 472.784C793.032 474.642 795.01 478.066 795 481.763L794.919 528.398C794.919 532.095 792.921 535.52 789.705 537.368L749.112 560.62C745.887 562.468 741.921 562.458 738.705 560.6L698.183 537.216C694.968 535.358 692.99 531.934 693 528.237L693.081 481.602C693.081 477.905 695.079 474.48 698.295 472.642L738.888 449.39V449.38Z" fill="url(#paint60_linear_3362_6556)"/>
</g>
<path opacity="0.61" d="M776.97 504.556L726.725 534.093M776.97 504.556L726.636 474.958M776.97 504.556L777 484.804L743.56 465L726.626 474.958M776.97 504.556L726.626 474.958M726.626 474.958L726.715 534.093M726.715 534.093L743.43 544L776.93 524.309L776.96 504.556L726.715 534.093ZM726.715 534.093L710 524.186L710.06 484.691L726.626 474.948" stroke="white" stroke-width="4" stroke-linejoin="round"/>
<line x1="629.314" y1="489.276" x2="667.314" y2="558.276" stroke="#34345A" stroke-width="3"/>
<line y1="-1.5" x2="78.7718" y2="-1.5" transform="matrix(-0.482406 0.875948 0.875948 0.482406 855 490)" stroke="#34345A" stroke-width="3"/>
<line x1="602.314" y1="489.276" x2="640.314" y2="558.276" stroke="#34345A" stroke-width="3"/>
<line y1="-1.5" x2="78.7718" y2="-1.5" transform="matrix(-0.482406 0.875948 0.875948 0.482406 882 490)" stroke="#34345A" stroke-width="3"/>
<line x1="577.314" y1="489.276" x2="615.314" y2="558.276" stroke="#34345A" stroke-width="3"/>
<line y1="-1.5" x2="78.7718" y2="-1.5" transform="matrix(-0.482406 0.875948 0.875948 0.482406 907 490)" stroke="#34345A" stroke-width="3"/>
<line x1="549.314" y1="489.276" x2="587.314" y2="558.276" stroke="#34345A" stroke-width="3"/>
<line y1="-1.5" x2="78.7718" y2="-1.5" transform="matrix(-0.482406 0.875948 0.875948 0.482406 935 490)" stroke="#34345A" stroke-width="3"/>
<line x1="522.314" y1="489.276" x2="560.314" y2="558.276" stroke="#34345A" stroke-width="3"/>
<line y1="-1.5" x2="78.7718" y2="-1.5" transform="matrix(-0.482406 0.875948 0.875948 0.482406 962 490)" stroke="#34345A" stroke-width="3"/>
<defs>
<filter id="filter0_d_3362_6556" x="125.719" y="97.1318" width="133.462" height="109.27" filterUnits="userSpaceOnUse" color-interpolation-filters="sRGB">
<feFlood flood-opacity="0" result="BackgroundImageFix"/>
<feColorMatrix in="SourceAlpha" type="matrix" values="0 0 0 0 0 0 0 0 0 0 0 0 0 0 0 0 0 0 127 0" result="hardAlpha"/>
<feOffset dx="7" dy="4"/>
<feGaussianBlur stdDeviation="12.5"/>
<feComposite in2="hardAlpha" operator="out"/>
<feColorMatrix type="matrix" values="0 0 0 0 0.349653 0 0 0 0 0.390705 0 0 0 0 0.883333 0 0 0 0.34 0"/>
<feBlend mode="normal" in2="BackgroundImageFix" result="effect1_dropShadow_3362_6556"/>
<feBlend mode="normal" in="SourceGraphic" in2="effect1_dropShadow_3362_6556" result="shape"/>
</filter>
<filter id="filter1_d_3362_6556" x="1231.08" y="97.1318" width="133.462" height="109.27" filterUnits="userSpaceOnUse" color-interpolation-filters="sRGB">
<feFlood flood-opacity="0" result="BackgroundImageFix"/>
<feColorMatrix in="SourceAlpha" type="matrix" values="0 0 0 0 0 0 0 0 0 0 0 0 0 0 0 0 0 0 127 0" result="hardAlpha"/>
<feOffset dx="7" dy="4"/>
<feGaussianBlur stdDeviation="12.5"/>
<feComposite in2="hardAlpha" operator="out"/>
<feColorMatrix type="matrix" values="0 0 0 0 0.349653 0 0 0 0 0.390705 0 0 0 0 0.883333 0 0 0 0.34 0"/>
<feBlend mode="normal" in2="BackgroundImageFix" result="effect1_dropShadow_3362_6556"/>
<feBlend mode="normal" in="SourceGraphic" in2="effect1_dropShadow_3362_6556" result="shape"/>
</filter>
<filter id="filter2_d_3362_6556" x="683" y="438" width="136" height="150" filterUnits="userSpaceOnUse" color-interpolation-filters="sRGB">
<feFlood flood-opacity="0" result="BackgroundImageFix"/>
<feColorMatrix in="SourceAlpha" type="matrix" values="0 0 0 0 0 0 0 0 0 0 0 0 0 0 0 0 0 0 127 0" result="hardAlpha"/>
<feOffset dx="7" dy="7"/>
<feGaussianBlur stdDeviation="5"/>
<feColorMatrix type="matrix" values="0 0 0 0 0 0 0 0 0 0 0 0 0 0 0 0 0 0 0.15 0"/>
<feBlend mode="normal" in2="BackgroundImageFix" result="effect1_dropShadow_3362_6556"/>
<feBlend mode="normal" in="SourceGraphic" in2="effect1_dropShadow_3362_6556" result="shape"/>
</filter>
<filter id="filter3_d_3362_6556" x="690" y="445" width="122" height="134" filterUnits="userSpaceOnUse" color-interpolation-filters="sRGB">
<feFlood flood-opacity="0" result="BackgroundImageFix"/>
<feColorMatrix in="SourceAlpha" type="matrix" values="0 0 0 0 0 0 0 0 0 0 0 0 0 0 0 0 0 0 127 0" result="hardAlpha"/>
<feOffset dx="7" dy="7"/>
<feGaussianBlur stdDeviation="5"/>
<feColorMatrix type="matrix" values="0 0 0 0 0 0 0 0 0 0 0 0 0 0 0 0 0 0 0.15 0"/>
<feBlend mode="normal" in2="BackgroundImageFix" result="effect1_dropShadow_3362_6556"/>
<feBlend mode="normal" in="SourceGraphic" in2="effect1_dropShadow_3362_6556" result="shape"/>
</filter>
<linearGradient id="paint0_linear_3362_6556" x1="210.094" y1="550.174" x2="220.083" y2="550.174" gradientUnits="userSpaceOnUse">
<stop stop-color="#351059"/>
<stop offset="1" stop-color="#1E1D1F"/>
</linearGradient>
<linearGradient id="paint1_linear_3362_6556" x1="177.795" y1="572.709" x2="253.063" y2="572.709" gradientUnits="userSpaceOnUse">
<stop stop-color="#351059"/>
<stop offset="1" stop-color="#1E1D1F"/>
</linearGradient>
<linearGradient id="paint2_linear_3362_6556" x1="174.387" y1="520.86" x2="259.926" y2="520.86" gradientUnits="userSpaceOnUse">
<stop stop-color="#351059"/>
<stop offset="1" stop-color="#1E1D1F"/>
</linearGradient>
<linearGradient id="paint3_linear_3362_6556" x1="165.191" y1="465.209" x2="225.591" y2="465.209" gradientUnits="userSpaceOnUse">
<stop stop-color="#351059"/>
<stop offset="1" stop-color="#1E1D1F"/>
</linearGradient>
<linearGradient id="paint4_linear_3362_6556" x1="218.993" y1="425.08" x2="218.96" y2="472.234" gradientUnits="userSpaceOnUse">
<stop stop-color="#4998ED"/>
<stop offset="1" stop-color="#256DBA"/>
</linearGradient>
<linearGradient id="paint5_linear_3362_6556" x1="219.192" y1="419.309" x2="219.192" y2="433.065" gradientUnits="userSpaceOnUse">
<stop stop-color="#4998ED"/>
<stop offset="1" stop-color="#256DBA"/>
</linearGradient>
<radialGradient id="paint6_radial_3362_6556" cx="0" cy="0" r="1" gradientUnits="userSpaceOnUse" gradientTransform="translate(243.67 387.719) rotate(123.348) scale(77.4182 52.9359)">
<stop offset="0.29" stop-color="#F7EAFF"/>
<stop offset="1" stop-color="#B7ACB9"/>
</radialGradient>
<linearGradient id="paint7_linear_3362_6556" x1="219.047" y1="477.242" x2="217.484" y2="467.862" gradientUnits="userSpaceOnUse">
<stop stop-color="#351059"/>
<stop offset="1" stop-color="#1E1D1F"/>
</linearGradient>
<linearGradient id="paint8_linear_3362_6556" x1="282.435" y1="479.205" x2="244.448" y2="429.843" gradientUnits="userSpaceOnUse">
<stop stop-color="#351059"/>
<stop offset="1" stop-color="#1E1D1F"/>
</linearGradient>
<linearGradient id="paint9_linear_3362_6556" x1="1248" y1="546.809" x2="1238.5" y2="546.809" gradientUnits="userSpaceOnUse">
<stop stop-color="#351059"/>
<stop offset="1" stop-color="#1E1D1F"/>
</linearGradient>
<linearGradient id="paint10_linear_3362_6556" x1="1278.75" y1="568.325" x2="1207.1" y2="568.325" gradientUnits="userSpaceOnUse">
<stop stop-color="#351059"/>
<stop offset="1" stop-color="#1E1D1F"/>
</linearGradient>
<linearGradient id="paint11_linear_3362_6556" x1="1281.98" y1="518.822" x2="1200.57" y2="518.822" gradientUnits="userSpaceOnUse">
<stop stop-color="#351059"/>
<stop offset="1" stop-color="#1E1D1F"/>
</linearGradient>
<linearGradient id="paint12_linear_3362_6556" x1="1290.7" y1="465.676" x2="1233.22" y2="465.676" gradientUnits="userSpaceOnUse">
<stop stop-color="#351059"/>
<stop offset="1" stop-color="#1E1D1F"/>
</linearGradient>
<linearGradient id="paint13_linear_3362_6556" x1="1245.08" y1="421.505" x2="1245.12" y2="470.582" gradientUnits="userSpaceOnUse">
<stop stop-color="#5D95E5"/>
<stop offset="1" stop-color="#3A6BB3"/>
</linearGradient>
<linearGradient id="paint14_linear_3362_6556" x1="1272.9" y1="427.315" x2="1245.82" y2="375.507" gradientUnits="userSpaceOnUse">
<stop stop-color="#695358"/>
<stop offset="1" stop-color="#B299A0"/>
</linearGradient>
<linearGradient id="paint15_linear_3362_6556" x1="1221" y1="490.424" x2="1265.66" y2="490.424" gradientUnits="userSpaceOnUse">
<stop stop-color="#5D95E5"/>
<stop offset="1" stop-color="#3A6BB3"/>
</linearGradient>
<linearGradient id="paint16_linear_3362_6556" x1="1252.94" y1="476.964" x2="1254.48" y2="467.722" gradientUnits="userSpaceOnUse">
<stop stop-color="#351059"/>
<stop offset="1" stop-color="#1E1D1F"/>
</linearGradient>
<linearGradient id="paint17_linear_3362_6556" x1="1190.48" y1="478.898" x2="1227.91" y2="430.262" gradientUnits="userSpaceOnUse">
<stop stop-color="#351059"/>
<stop offset="1" stop-color="#1E1D1F"/>
</linearGradient>
<linearGradient id="paint18_linear_3362_6556" x1="303.432" y1="489.441" x2="290.528" y2="502.344" gradientUnits="userSpaceOnUse">
<stop stop-color="#FFCF50"/>
<stop offset="1" stop-color="#FF7334"/>
</linearGradient>
<linearGradient id="paint19_linear_3362_6556" x1="1154.16" y1="489.441" x2="1167.07" y2="502.344" gradientUnits="userSpaceOnUse">
<stop stop-color="#FFCF50"/>
<stop offset="1" stop-color="#FF7334"/>
</linearGradient>
<linearGradient id="paint20_linear_3362_6556" x1="156.278" y1="44.7002" x2="234.592" y2="115.128" gradientUnits="userSpaceOnUse">
<stop stop-color="#260C40"/>
<stop offset="1" stop-color="#580A47"/>
</linearGradient>
<linearGradient id="paint21_linear_3362_6556" x1="131.278" y1="148.7" x2="209.592" y2="219.128" gradientUnits="userSpaceOnUse">
<stop stop-color="#260C40"/>
<stop offset="1" stop-color="#580A47"/>
</linearGradient>
<linearGradient id="paint22_linear_3362_6556" x1="176.906" y1="33.0942" x2="158.334" y2="42.8968" gradientUnits="userSpaceOnUse">
<stop stop-color="#FFCF50"/>
<stop offset="1" stop-color="#FF7334"/>
</linearGradient>
<linearGradient id="paint23_linear_3362_6556" x1="199.687" y1="33.0942" x2="177.223" y2="56.8061" gradientUnits="userSpaceOnUse">
<stop stop-color="#FFCF50"/>
<stop offset="1" stop-color="#FF7334"/>
</linearGradient>
<linearGradient id="paint24_linear_3362_6556" x1="222.45" y1="33.0942" x2="199.986" y2="56.8061" gradientUnits="userSpaceOnUse">
<stop stop-color="#FFCF50"/>
<stop offset="1" stop-color="#FF7334"/>
</linearGradient>
<linearGradient id="paint25_linear_3362_6556" x1="245.213" y1="33.0942" x2="222.75" y2="56.8061" gradientUnits="userSpaceOnUse">
<stop stop-color="#FFCF50"/>
<stop offset="1" stop-color="#FF7334"/>
</linearGradient>
<linearGradient id="paint26_linear_3362_6556" x1="256.103" y1="33.0942" x2="237.53" y2="42.8968" gradientUnits="userSpaceOnUse">
<stop stop-color="#FFCF50"/>
<stop offset="1" stop-color="#FF7334"/>
</linearGradient>
<linearGradient id="paint27_linear_3362_6556" x1="155.899" y1="119.623" x2="157.702" y2="130.866" gradientUnits="userSpaceOnUse">
<stop stop-color="#2CF1D9"/>
<stop offset="1" stop-color="#17ADED"/>
</linearGradient>
<linearGradient id="paint28_linear_3362_6556" x1="157.033" y1="166.122" x2="159.683" y2="177.01" gradientUnits="userSpaceOnUse">
<stop stop-color="#2CF1D9"/>
<stop offset="1" stop-color="#17ADED"/>
</linearGradient>
<linearGradient id="paint29_linear_3362_6556" x1="188.731" y1="136.539" x2="189.352" y2="128.055" gradientUnits="userSpaceOnUse">
<stop stop-color="#4CA0FC"/>
<stop offset="1" stop-color="#E02FEE"/>
</linearGradient>
<linearGradient id="paint30_linear_3362_6556" x1="175.577" y1="149.654" x2="176.549" y2="141.236" gradientUnits="userSpaceOnUse">
<stop stop-color="#4CA0FC"/>
<stop offset="1" stop-color="#E02FEE"/>
</linearGradient>
<linearGradient id="paint31_linear_3362_6556" x1="191.08" y1="180.654" x2="192.052" y2="172.237" gradientUnits="userSpaceOnUse">
<stop stop-color="#4CA0FC"/>
<stop offset="1" stop-color="#E02FEE"/>
</linearGradient>
<linearGradient id="paint32_linear_3362_6556" x1="197.862" y1="160.385" x2="198.549" y2="151.911" gradientUnits="userSpaceOnUse">
<stop stop-color="#4CA0FC"/>
<stop offset="1" stop-color="#E02FEE"/>
</linearGradient>
<linearGradient id="paint33_linear_3362_6556" x1="1319.99" y1="44.7002" x2="1241.67" y2="115.128" gradientUnits="userSpaceOnUse">
<stop stop-color="#260C40"/>
<stop offset="1" stop-color="#580A47"/>
</linearGradient>
<linearGradient id="paint34_linear_3362_6556" x1="1344.99" y1="148.7" x2="1266.67" y2="219.128" gradientUnits="userSpaceOnUse">
<stop stop-color="#260C40"/>
<stop offset="1" stop-color="#580A47"/>
</linearGradient>
<linearGradient id="paint35_linear_3362_6556" x1="-3.32049" y1="-1.50909" x2="-1.51811" y2="9.73437" gradientUnits="userSpaceOnUse">
<stop stop-color="#2CF1D9"/>
<stop offset="1" stop-color="#17ADED"/>
</linearGradient>
<linearGradient id="paint36_linear_3362_6556" x1="-2.18666" y1="-1.50909" x2="0.46357" y2="9.37817" gradientUnits="userSpaceOnUse">
<stop stop-color="#2CF1D9"/>
<stop offset="1" stop-color="#17ADED"/>
</linearGradient>
<linearGradient id="paint37_linear_3362_6556" x1="16.3965" y1="3.48335" x2="17.0173" y2="-5.00059" gradientUnits="userSpaceOnUse">
<stop stop-color="#4CA0FC"/>
<stop offset="1" stop-color="#E02FEE"/>
</linearGradient>
<linearGradient id="paint38_linear_3362_6556" x1="10.3978" y1="3.48335" x2="11.369" y2="-4.93393" gradientUnits="userSpaceOnUse">
<stop stop-color="#4CA0FC"/>
<stop offset="1" stop-color="#E02FEE"/>
</linearGradient>
<linearGradient id="paint39_linear_3362_6556" x1="10.3978" y1="3.48335" x2="11.369" y2="-4.93393" gradientUnits="userSpaceOnUse">
<stop stop-color="#4CA0FC"/>
<stop offset="1" stop-color="#E02FEE"/>
</linearGradient>
<linearGradient id="paint40_linear_3362_6556" x1="14.7968" y1="3.48335" x2="15.4839" y2="-4.9903" gradientUnits="userSpaceOnUse">
<stop stop-color="#4CA0FC"/>
<stop offset="1" stop-color="#E02FEE"/>
</linearGradient>
<linearGradient id="paint41_linear_3362_6556" x1="1284.05" y1="30.6104" x2="1256.74" y2="59.4027" gradientUnits="userSpaceOnUse">
<stop stop-color="#51FFEA"/>
<stop offset="1" stop-color="#22BAFA"/>
</linearGradient>
<linearGradient id="paint42_linear_3362_6556" x1="1286.37" y1="40.9248" x2="1280.63" y2="46.1608" gradientUnits="userSpaceOnUse">
<stop stop-color="#51FFEA"/>
<stop offset="1" stop-color="#22BAFA"/>
</linearGradient>
<linearGradient id="paint43_linear_3362_6556" x1="1252.31" y1="40.3415" x2="1256.11" y2="47.1232" gradientUnits="userSpaceOnUse">
<stop stop-color="#51FFEA"/>
<stop offset="1" stop-color="#22BAFA"/>
</linearGradient>
<linearGradient id="paint44_linear_3362_6556" x1="1264.47" y1="28.2319" x2="1258.74" y2="33.4679" gradientUnits="userSpaceOnUse">
<stop stop-color="#51FFEA"/>
<stop offset="1" stop-color="#22BAFA"/>
</linearGradient>
<linearGradient id="paint45_linear_3362_6556" x1="1279.12" y1="28.2319" x2="1273.39" y2="33.4679" gradientUnits="userSpaceOnUse">
<stop stop-color="#51FFEA"/>
<stop offset="1" stop-color="#22BAFA"/>
</linearGradient>
<linearGradient id="paint46_linear_3362_6556" x1="1283.25" y1="18.0489" x2="1284.55" y2="18.8988" gradientUnits="userSpaceOnUse">
<stop stop-color="#51FFEA"/>
<stop offset="1" stop-color="#22BAFA"/>
</linearGradient>
<linearGradient id="paint47_linear_3362_6556" x1="1281.37" y1="15.1404" x2="1285.64" y2="21.6352" gradientUnits="userSpaceOnUse">
<stop stop-color="#51FFEA"/>
<stop offset="1" stop-color="#22BAFA"/>
</linearGradient>
<linearGradient id="paint48_linear_3362_6556" x1="1254.7" y1="18.0969" x2="1253.5" y2="18.8643" gradientUnits="userSpaceOnUse">
<stop stop-color="#51FFEA"/>
<stop offset="1" stop-color="#22BAFA"/>
</linearGradient>
<linearGradient id="paint49_linear_3362_6556" x1="1256.42" y1="15" x2="1252.04" y2="21.417" gradientUnits="userSpaceOnUse">
<stop stop-color="#51FFEA"/>
<stop offset="1" stop-color="#22BAFA"/>
</linearGradient>
<linearGradient id="paint50_linear_3362_6556" x1="1276.64" y1="56.1609" x2="1275.44" y2="56.9282" gradientUnits="userSpaceOnUse">
<stop stop-color="#51FFEA"/>
<stop offset="1" stop-color="#22BAFA"/>
</linearGradient>
<linearGradient id="paint51_linear_3362_6556" x1="1286.37" y1="66.3115" x2="1280.63" y2="71.5475" gradientUnits="userSpaceOnUse">
<stop stop-color="#51FFEA"/>
<stop offset="1" stop-color="#22BAFA"/>
</linearGradient>
<linearGradient id="paint52_linear_3362_6556" x1="1261.31" y1="56.1344" x2="1262.61" y2="56.9843" gradientUnits="userSpaceOnUse">
<stop stop-color="#51FFEA"/>
<stop offset="1" stop-color="#22BAFA"/>
</linearGradient>
<linearGradient id="paint53_linear_3362_6556" x1="1257.12" y1="66.312" x2="1251.39" y2="71.548" gradientUnits="userSpaceOnUse">
<stop stop-color="#51FFEA"/>
<stop offset="1" stop-color="#22BAFA"/>
</linearGradient>
<linearGradient id="paint54_linear_3362_6556" x1="1264.47" y1="53.6187" x2="1258.74" y2="58.8546" gradientUnits="userSpaceOnUse">
<stop stop-color="#51FFEA"/>
<stop offset="1" stop-color="#22BAFA"/>
</linearGradient>
<linearGradient id="paint55_linear_3362_6556" x1="1274.3" y1="53.0427" x2="1278.09" y2="59.8244" gradientUnits="userSpaceOnUse">
<stop stop-color="#51FFEA"/>
<stop offset="1" stop-color="#22BAFA"/>
</linearGradient>
<linearGradient id="paint56_linear_3362_6556" x1="1254.38" y1="43.3042" x2="1254.29" y2="44.8599" gradientUnits="userSpaceOnUse">
<stop stop-color="#51FFEA"/>
<stop offset="1" stop-color="#22BAFA"/>
</linearGradient>
<linearGradient id="paint57_linear_3362_6556" x1="1242.49" y1="40.9248" x2="1236.76" y2="46.1608" gradientUnits="userSpaceOnUse">
<stop stop-color="#51FFEA"/>
<stop offset="1" stop-color="#22BAFA"/>
</linearGradient>
<linearGradient id="paint58_linear_3362_6556" x1="1298.25" y1="43.3042" x2="1298.17" y2="44.8599" gradientUnits="userSpaceOnUse">
<stop stop-color="#51FFEA"/>
<stop offset="1" stop-color="#22BAFA"/>
</linearGradient>
<linearGradient id="paint59_linear_3362_6556" x1="1301" y1="40.9248" x2="1295.26" y2="46.1608" gradientUnits="userSpaceOnUse">
<stop stop-color="#51FFEA"/>
<stop offset="1" stop-color="#22BAFA"/>
</linearGradient>
<linearGradient id="paint60_linear_3362_6556" x1="797.861" y1="560.616" x2="687.064" y2="444.718" gradientUnits="userSpaceOnUse">
<stop stop-color="#629EF4"/>
<stop offset="1" stop-color="#D83FE4"/>
</linearGradient>
</defs>
</svg>
