<svg xmlns="http://www.w3.org/2000/svg" fill="none" viewBox="0 0 1920 541">
  <path opacity=".7" fill="url(#VExNg6W5ua)" d="M0 451h1920v90H0z"/>
  <g opacity=".2">
    <path d="M1319.63 356h19.43c2.43 0 4.4 1.902 4.4 4.248v.015c0 2.346-1.97 4.248-4.4 4.248h-19.43c-2.43 0-4.41-1.902-4.41-4.248v-.015c0-2.346 1.98-4.248 4.41-4.248zm0 14.891h19.43c2.43 0 4.4 1.902 4.4 4.249v.014c0 2.346-1.97 4.249-4.4 4.249h-19.43c-2.43 0-4.41-1.903-4.41-4.249v-.014c0-2.347 1.98-4.249 4.41-4.249zm19.43 13.203h-5.3c-2.43 0-4.42 1.902-4.42 4.263 0 2.346 1.97 4.248 4.41 4.248h5.29c2.43 0 4.41-1.902 4.41-4.248s-1.98-4.263-4.41-4.263h.02z" fill="#182E36"/>
    <path d="M1574.05 135.257h5.6c1.25 0 2.27.98 2.27 2.189v.917c0 1.209-1.02 2.189-2.27 2.189h-5.6c-1.25 0-2.26-.98-2.26-2.189v-.917c0-1.209 1.01-2.189 2.26-2.189z" fill="#fff"/>
    <path d="M1528.17 135.257h5.6c1.25 0 2.27.98 2.27 2.189v.917c0 1.209-1.02 2.189-2.27 2.189h-5.6c-1.25 0-2.27-.98-2.27-2.189v-.917c0-1.209 1.02-2.189 2.27-2.189z" fill="#231A31"/>
    <path d="M1574.05 170.792h5.6c1.25 0 2.27.98 2.27 2.189v.916c0 1.21-1.02 2.19-2.27 2.19h-5.6c-1.25 0-2.26-.98-2.26-2.19v-.916c0-1.209 1.01-2.189 2.26-2.189z" fill="#fff"/>
    <path d="M1533.78 170.792h-5.61c-1.25 0-2.27.98-2.27 2.189v.916c0 1.209 1.02 2.19 2.27 2.19h5.61c1.25 0 2.27-.981 2.27-2.19v-.916c0-1.209-1.02-2.189-2.27-2.189z" fill="#231A31"/>
    <path fill-rule="evenodd" clip-rule="evenodd" d="M1660.71 107.944h-135.03c-9.5 0-17.27 7.496-17.27 16.66v308.831c0 9.164 7.77 16.66 17.27 16.66h135.03c9.5 0 17.27-7.496 17.27-16.66V124.604c0-9.164-7.77-16.66-17.27-16.66zm-60.87 104.67c0 4.264-3.62 7.751-8.04 7.751h-61.62c-4.42 0-8.04-3.487-8.04-7.751v-3.233c0-4.263 3.62-7.751 8.04-7.751h61.62c4.42 0 8.04 3.488 8.04 7.751v3.233zm0-35.535c0 4.264-3.62 7.751-8.04 7.751h-61.62c-4.42 0-8.04-3.487-8.04-7.751v-3.233c0-4.263 3.62-7.751 8.04-7.751h61.62c4.42 0 8.04 3.488 8.04 7.751v3.233zm0-35.535c0 4.264-3.62 7.751-8.04 7.751h-61.62c-4.42 0-8.04-3.487-8.04-7.751v-3.233c0-4.263 3.62-7.751 8.04-7.751h61.62c4.42 0 8.04 3.488 8.04 7.751v3.233z" fill="#231A31"/>
    <path d="M1574.05 206.314h5.6c1.25 0 2.27.98 2.27 2.189v.917c0 1.209-1.02 2.189-2.27 2.189h-5.6c-1.25 0-2.26-.98-2.26-2.189v-.917c0-1.209 1.01-2.189 2.26-2.189zm-40.27 0h-5.61c-1.25 0-2.27.98-2.27 2.189v.917c0 1.209 1.02 2.189 2.27 2.189h5.61c1.25 0 2.27-.98 2.27-2.189v-.917c0-1.209-1.02-2.189-2.27-2.189z" fill="#231A31"/>
    <path d="M1592.28 135.257h-5.61c-1.25 0-2.27.98-2.27 2.189v.917c0 1.209 1.02 2.189 2.27 2.189h5.61c1.25 0 2.27-.98 2.27-2.189v-.917c0-1.209-1.02-2.189-2.27-2.189z" fill="#fff"/>
    <path d="M1592.28 170.792h-5.61c-1.25 0-2.27.98-2.27 2.189v.916c0 1.209 1.02 2.19 2.27 2.19h5.61c1.25 0 2.27-.981 2.27-2.19v-.916c0-1.209-1.02-2.189-2.27-2.189zm0 35.522h-5.61c-1.25 0-2.27.98-2.27 2.189v.917c0 1.209 1.02 2.189 2.27 2.189h5.61c1.25 0 2.27-.98 2.27-2.189v-.917c0-1.209-1.02-2.189-2.27-2.189z" fill="#231A31"/>
    <path d="M360.93 135.257h-5.595c-1.254 0-2.27.98-2.27 2.189v.917c0 1.209 1.016 2.189 2.27 2.189h5.595c1.253 0 2.269-.98 2.269-2.189v-.917c0-1.209-1.016-2.189-2.269-2.189z" fill="#fff"/>
    <path d="M406.812 135.257h-5.595c-1.253 0-2.269.98-2.269 2.189v.917c0 1.209 1.016 2.189 2.269 2.189h5.595c1.254 0 2.27-.98 2.27-2.189v-.917c0-1.209-1.016-2.189-2.27-2.189z" fill="#231A31"/>
    <path d="M360.93 170.792h-5.595c-1.254 0-2.27.98-2.27 2.189v.916c0 1.21 1.016 2.19 2.27 2.19h5.595c1.253 0 2.269-.98 2.269-2.19v-.916c0-1.209-1.016-2.189-2.269-2.189z" fill="#fff"/>
    <path d="M401.204 170.792h5.608c1.254 0 2.27.98 2.27 2.189v.916c0 1.209-1.016 2.19-2.27 2.19h-5.608c-1.253 0-2.269-.981-2.269-2.19v-.916c0-1.209 1.016-2.189 2.269-2.189z" fill="#231A31"/>
    <path fill-rule="evenodd" clip-rule="evenodd" d="M274.273 107.944h135.032c9.501 0 17.273 7.496 17.273 16.66v308.831c0 9.164-7.772 16.66-17.273 16.66H274.273c-9.501 0-17.273-7.496-17.273-16.66V124.604c0-9.164 7.772-16.66 17.273-16.66zm60.872 104.67c0 4.264 3.616 7.751 8.036 7.751h61.624c4.421 0 8.036-3.487 8.036-7.751v-3.233c0-4.263-3.615-7.751-8.036-7.751h-61.624c-4.42 0-8.036 3.488-8.036 7.751v3.233zm0-35.535c0 4.264 3.616 7.751 8.036 7.751h61.624c4.421 0 8.036-3.487 8.036-7.751v-3.233c0-4.263-3.615-7.751-8.036-7.751h-61.624c-4.42 0-8.036 3.488-8.036 7.751v3.233zm0-35.535c0 4.264 3.616 7.751 8.036 7.751h61.624c4.421 0 8.036-3.487 8.036-7.751v-3.233c0-4.263-3.615-7.751-8.036-7.751h-61.624c-4.42 0-8.036 3.488-8.036 7.751v3.233z" fill="#231A31"/>
    <path d="M360.93 206.314h-5.595c-1.254 0-2.27.98-2.27 2.189v.917c0 1.209 1.016 2.189 2.27 2.189h5.595c1.253 0 2.269-.98 2.269-2.189v-.917c0-1.209-1.016-2.189-2.269-2.189zm40.274 0h5.608c1.254 0 2.27.98 2.27 2.189v.917c0 1.209-1.016 2.189-2.27 2.189h-5.608c-1.253 0-2.269-.98-2.269-2.189v-.917c0-1.209 1.016-2.189 2.269-2.189z" fill="#231A31"/>
    <path d="M342.704 135.257h5.608c1.254 0 2.27.98 2.27 2.189v.917c0 1.209-1.016 2.189-2.27 2.189h-5.608c-1.253 0-2.269-.98-2.269-2.189v-.917c0-1.209 1.016-2.189 2.269-2.189z" fill="#fff"/>
    <path d="M342.704 170.792h5.608c1.254 0 2.27.98 2.27 2.189v.916c0 1.209-1.016 2.19-2.27 2.19h-5.608c-1.253 0-2.269-.981-2.269-2.19v-.916c0-1.209 1.016-2.189 2.269-2.189zm0 35.522h5.608c1.254 0 2.27.98 2.27 2.189v.917c0 1.209-1.016 2.189-2.27 2.189h-5.608c-1.253 0-2.269-.98-2.269-2.189v-.917c0-1.209 1.016-2.189 2.269-2.189z" fill="#231A31"/>
    <path d="M1431.57 122h38.85c2.44 0 4.41 1.902 4.41 4.248v.015c0 2.346-1.97 4.248-4.41 4.248h-38.85c-2.44 0-4.41-1.902-4.41-4.248v-.015c0-2.346 1.97-4.248 4.41-4.248zm19.43 14.891h19.42c2.44 0 4.41 1.902 4.41 4.249v.014c0 2.346-1.97 4.248-4.41 4.248H1451c-2.44 0-4.41-1.902-4.41-4.248v-.014c0-2.347 1.97-4.249 4.41-4.249zm14.11 13.189h5.31c2.44 0 4.41 1.902 4.41 4.248v.015c0 2.346-1.97 4.248-4.41 4.248h-5.31c-2.43 0-4.4-1.902-4.4-4.248v-.015c0-2.346 1.97-4.248 4.4-4.248z" fill="#182E36"/>
    <path d="M506.515 117h-38.856c-2.433 0-4.405 1.902-4.405 4.248v.015c0 2.346 1.972 4.248 4.405 4.248h38.856c2.433 0 4.405-1.902 4.405-4.248v-.015c0-2.346-1.972-4.248-4.405-4.248zm-19.428 14.891h-19.428c-2.433 0-4.405 1.902-4.405 4.249v.014c0 2.346 1.972 4.248 4.405 4.248h19.428c2.433 0 4.405-1.902 4.405-4.248v-.014c0-2.347-1.972-4.249-4.405-4.249zm-14.119 13.189h-5.309c-2.433 0-4.405 1.902-4.405 4.248v.015c0 2.346 1.972 4.248 4.405 4.248h5.309c2.433 0 4.405-1.902 4.405-4.248v-.015c0-2.346-1.972-4.248-4.405-4.248z" fill="#0F0715"/>
  </g>
  <ellipse opacity=".4" cx="1417" cy="510" rx="91" ry="14" fill="url(#VExNg6W5ub)"/>
  <ellipse opacity=".4" cx="498" cy="500" rx="91" ry="14" fill="url(#VExNg6W5uc)"/>
  <ellipse opacity=".4" cx="1548.5" cy="476" rx="68.5" ry="10" fill="url(#VExNg6W5ud)"/>
  <ellipse opacity=".4" cx="340.208" cy="479.739" rx="43.208" ry="6.739" fill="url(#VExNg6W5ue)"/>
  <g opacity=".9">
    <path d="M1389.1 393.962c3.74-7.436 20.23-37.166 47.59-44.539.4-.111.81-.174 1.22-.206 4.41-.239 28.42.683 38.67 47.796.03.175.08.334.13.509 1.4 4.242 17.28 60.031-10.17 87.775-3.3 3.337-21.85 21.594-54.26 21.594-24.02 0-89.95-20.673-64.55-80.132 4.1-9.629 10.74-18.512 22.95-23.263l15.74-7.007a5.524 5.524 0 002.69-2.527h-.01z" fill="url(#VExNg6W5uf)"/>
    <path opacity=".53" d="M1392.91 486.33c32.41 0 50.96-18.258 54.26-21.595 27.44-27.743 11.56-83.532 10.16-87.775a3.93 3.93 0 01-.13-.508c-2.15-9.884-4.9-17.701-7.95-23.93 9.06 4.226 21.05 15.54 27.52 45.349.03.175.08.334.13.509 1.41 4.242 17.28 60.031-10.16 87.775-3.3 3.337-21.85 21.594-54.26 21.594-16.74 0-53.73-10.026-66.14-36.165 15.77 10.408 35.56 14.746 46.55 14.746h.02z" fill="#D34675"/>
    <path opacity=".53" d="M1404.44 462.352c-31.28 0-56.63-5.734-56.63-12.807s25.35-12.807 56.63-12.807 56.64 5.734 56.64 12.807-25.36 12.807-56.64 12.807z" fill="#D34675"/>
    <path d="M1437.2 419.148h-40.72v27.839h40.72v-27.839z" fill="#25253A"/>
    <path d="M1416.16 440.743s36.75-18.671 55.72-23.93c5.71-2.05 15.98 8.612 6.95 16.875 0 0-31.78 13.649-60.15 17.605 1.21-4.401-.1-7.706-2.51-10.55h-.01z" fill="#363450"/>
    <path d="M1478.27 428.889s-31.16 17.462-60 21.641c-.07.366-.14.731-.23 1.113 28.38-3.957 60.15-17.606 60.15-17.606 1.07-.985 4.32-2.797 4.19-7.325-.41.54-3.55 1.652-4.11 2.177z" fill="#25253A"/>
    <path d="M1368.55 444.731l22.59 2.4c2.79.302 5.61 0 8.27-.874l16.76-5.514s6.16 5.101 2.51 10.551c0 0-13.88 1.859-21.14 5.084-1.5.668-3.15.986-4.8 1.002l-26.9.333s-4.16-8.04 2.74-12.982h-.03z" fill="url(#VExNg6W5ug)"/>
    <path d="M1418 449.514v.032s-13.89 1.859-21.17 5.084c-1.5.668-3.15.986-4.8 1.002l-26.9.333s-.02-.047-.07-.127l-.44.095c.31 1.001.62 1.637.62 1.637l26.9-.334c1.67-.016 3.3-.333 4.81-1.001 7.27-3.241 21.14-5.084 21.14-5.084.33-.509.57-1.001.75-1.494l-.85-.159.01.016z" fill="#CABFCE"/>
    <path d="M1369.57 444.111s-10.93-4.004-13.29 3.766c0 0-3.48 9.788 8.19 10.011l4.09-.239c-2.66-4.306-2.31-8.818.99-13.554l.02.016z" fill="#783CAE"/>
    <path d="M1417.62 440.743s-36.75-18.671-55.72-23.93c-5.71-2.05-15.98 8.612-6.95 16.875 0 0 31.78 13.649 60.15 17.605-1.21-4.401.1-7.706 2.51-10.55h.01z" fill="#363450"/>
    <path d="M1351.47 426.347s34.83 18.4 63.69 22.579c.07.366.48 2.336.58 2.717-28.38-3.956-60.15-17.606-60.15-17.606-1.37-.365-2.47-1.652-3-2.669.41.54-1.83-3.353-1.11-5.021h-.01z" fill="#25253A"/>
    <path d="M1466.89 445.522l-22.59 2.4c-2.79.302-5.62 0-8.27-.874l-16.77-5.514s-6.15 5.101-2.51 10.551c0 0 13.88 1.859 21.14 5.084 1.5.668 3.15.986 4.8 1.002l26.9.333s4.16-8.04-2.74-12.982h.04z" fill="url(#VExNg6W5uh)"/>
    <path d="M1415.78 449.514v.032s13.89 1.859 21.17 5.084c1.5.668 3.15.986 4.8 1.002l26.9.333s.02-.047.06-.127l.45.095c-.31 1.001-.63 1.637-.63 1.637l-26.9-.334c-1.66-.016-3.3-.333-4.8-1.001-7.28-3.241-21.14-5.084-21.14-5.084a7.981 7.981 0 01-.76-1.494l.86-.159-.01.016z" fill="#CABFCE"/>
    <path d="M1464.84 444.286s10.92-4.004 13.28 3.766c0 0 3.48 9.788-8.18 10.01l-4.1-.238c2.66-4.306 2.31-8.819-.99-13.554l-.01.016z" fill="#783CAE"/>
    <path d="M1470 455.361c6.04-.127 8.01-2.796 8.52-5.355.36 2.845-.12 8.041-8.58 8.199l-4.1-.238c.56-.921.96-1.843 1.26-2.781l2.9.175zm-105.58-.174c-6.04-.127-8-2.797-8.52-5.355-.36 2.844.12 8.04 8.59 8.199l4.09-.238c-.56-.922-.96-1.844-1.26-2.781l-2.9.175z" fill="#592B89"/>
    <path d="M1420.61 378.963l-.03-12.696-11.09-.445-.83 13.109-7.33-.031-.04 10.836 20.34 13.681 4.84-24.438-5.86-.016z" fill="#F3EBFF"/>
    <path opacity=".6" d="M1428.63 394.154l-14.39.906c2.16-1.065 3.04-1.78 4.44-3.146 1.12-1.081 1.82-3.194.69-4.275-2.78-2.685-2.8-10.725-1.65-15.429l2.96-1.128 7.92 23.072h.03z" fill="#CABFCE"/>
    <path d="M1438.02 426.76l-48.75-2.018c-5.73-.016-8.99-3.957-9.11-9.359-.01-1.017.12-2.018.3-3.019l3.27-17.066c.97-4.036 2.98-7.754 5.34-10.63 3.02-3.686 7.71-5.752 12.58-5.736l3.97 11.869c2.69 7.278 14.99 6.356 17.33.064l4.76-11.917c8.3-.175 23.81 9.057 23.74 25.217l.4 9.391c.2 14.793-6.22 13.252-13.83 13.22v-.016z" fill="url(#VExNg6W5ui)"/>
    <path d="M1420.21 371.606c-.46 1.319-4.3 8.867 2.99 17.479 5.86 6.928 21.04.826 26.78-1.843a.968.968 0 00-.06-1.796c-3.68-1.382-10.55-5.196-11.67-14.682-.31-2.685-.81-5.339-1.58-7.913l-2.69-8.835-13.77 17.59z" fill="#1D1D1B"/>
    <path d="M1443.17 424.837c-.93 0-1.88-.064-2.84-.112-.97-.063-1.96-.111-2.99-.127l-16.37.159v-1.62l16.37-.159c1.08 0 2.12.079 3.11.127 3.08.175 5.74.333 7.39-1.144 1.76-1.589 3-4.974 2.72-10.789l.91-7.977c-.05-.938.08-1.446-.07-1.43l.42 9.12c.31 6.468-.53 10.234-2.74 12.22-1.57 1.414-3.63 1.732-5.9 1.716l-.01.016z" fill="#14588C"/>
    <path d="M1414.21 372.592c-10.08-.699-17.33-8.803-21.72-20.88l.1-26.663c.02-4.941 4.21-8.945 9.34-8.93l24.74-1.7c5.15.016 7.79 4.243 7.77 9.184l-.35 26.012c-6.17 24.979-19.88 22.977-19.88 22.977z" fill="url(#VExNg6W5uj)"/>
    <path d="M1403.81 351.807c1.04 0 1.88-.811 1.88-1.811 0-1-.84-1.811-1.88-1.811s-1.88.811-1.88 1.811c0 1 .84 1.811 1.88 1.811zm18.98-.349c1.08 0 1.96-.846 1.96-1.891 0-1.044-.88-1.89-1.96-1.89-1.09 0-1.97.846-1.97 1.89 0 1.045.88 1.891 1.97 1.891z" fill="#5B5159"/>
    <path d="M1427.29 307.079c.03-7.17-6.1-13.004-13.68-13.03-7.58-.027-13.75 5.763-13.78 12.933-.03 7.17 6.1 13.004 13.68 13.03 7.58.027 13.75-5.763 13.78-12.933z" fill="#1D1D1B"/>
    <path d="M1440.65 353.952s-22.2-6.642-28.98-21.657c-5.94 19.337-20.88 20.196-25.65 19.02-.76-.191-1.05-1.081-.54-1.653 6.19-6.96 4.88-13.347 5.26-24.438.45-16.462 20.68-20.387 28.01-18.464 9.11 2.399 27.18 12.505 21.9 47.192z" fill="#1D1D1B"/>
    <path d="M1441.34 336.601l-5.96-3.83c.05-11.965-9.46-21.721-21.19-21.769-11.73-.047-21.3 9.661-21.35 21.611h-5.38c.05-15 12.06-27.156 26.75-27.092 14.68.047 27.24 12.076 27.13 31.08z" fill="#8257AF"/>
    <path d="M1434.57 329.228h-.25c.07 10.71-.94 20.403-3.12 28.967.09 0 .17.032.25.048 5.3.524 10.3-5.53 11.16-13.538.85-8.009-2.74-14.936-8.04-15.461v-.016z" fill="#41166C"/>
    <path d="M1441.95 333.47h-.18c.05 7.659-.68 14.587-2.23 20.721.07 0 .11.032.18.032 3.8.381 7.36-3.957 7.97-9.693.61-5.736-1.95-10.678-5.74-11.06z" fill="#8257AF"/>
    <path d="M1393.47 328.847h.24c-.57 10.694-.03 20.418 1.75 29.078-.08 0-.16.032-.25.032-5.31.302-10.01-5.975-10.49-14.015-.48-8.04 3.43-14.793 8.75-15.095z" fill="#41166C"/>
    <path d="M1387.19 334.869h.17c-.38 6.896-.02 13.157 1.12 18.734-.05 0-.1.016-.16.016-3.44.191-6.46-3.861-6.77-9.041-.31-5.18 2.21-9.534 5.64-9.725v.016z" fill="#8257AF"/>
    <path d="M1388.03 424.789c-10.61-.731-7.85-12.601-4.4-26.361l.13-.922c1.01 1.001.41-.492 0 .843-1.87 5.942-3.05 24.581 3.99 24.645l.28 1.795z" fill="#1C64A5"/>
    <path d="M1414.16 364.058c2-.063 3.91-.731 5.51-1.891.08-.063.17-.127.23-.222.07-.08.1-.191.12-.286.01-.095.01-.207 0-.302a.909.909 0 00-.13-.286.772.772 0 00-.24-.207.64.64 0 00-.29-.111c-.1-.016-.22-.016-.32 0a.783.783 0 00-.29.127c-3.2 2.145-5.99 2.145-8.77.032a.885.885 0 00-.61-.175.79.79 0 00-.54.286.809.809 0 00-.18.588.74.74 0 00.29.525c1.46 1.207 3.3 1.875 5.22 1.922z" fill="#5B5159"/>
  </g>
  <path d="M1443.6 382.575l-53.35-.171c-2.22-.007-4.03 1.722-4.04 3.862l-.11 34.011c-.01 2.139 1.78 3.88 4.01 3.887l53.35.17c2.22.007 4.03-1.722 4.03-3.861l.12-34.011c.01-2.14-1.79-3.88-4.01-3.887z" fill="url(#VExNg6W5uk)"/>
  <path d="M1446.59 423.999l-59.68-.19c-1.46-.005-2.64 1.125-2.64 2.523v.017c-.01 1.398 1.17 2.535 2.62 2.54l59.68.19c1.45.005 2.63-1.125 2.64-2.523v-.017c0-1.398-1.17-2.535-2.62-2.54z" fill="#000"/>
  <path opacity=".8" d="M1422.15 407.034v-4.598c.02-.603-.32-1.137-.86-1.429l-4.58-2.411a1.73 1.73 0 00-1.59 0l-4.61 2.376a1.66 1.66 0 00-.9 1.412v4.598c-.01.603.33 1.137.86 1.43l4.58 2.41c.5.259 1.09.259 1.59 0l4.62-2.376c.53-.276.87-.827.89-1.412z" fill="#783CAE"/>
  <g opacity=".9">
    <path d="M518.321 387.963c-3.746-7.437-20.232-37.167-47.593-44.539a6.284 6.284 0 00-1.221-.207c-4.407-.238-28.418.683-38.666 47.796-.033.175-.082.334-.132.509-1.402 4.242-17.278 60.031 10.166 87.775 3.3 3.337 21.849 21.594 54.26 21.594 24.027 0 89.955-20.672 64.557-80.132-4.109-9.629-10.743-18.511-22.955-23.263l-15.743-7.007a5.59 5.59 0 01-2.69-2.526h.017z" fill="url(#VExNg6W5ul)"/>
    <path opacity=".53" d="M514.511 480.33c-32.41 0-50.959-18.258-54.26-21.595-27.443-27.743-11.568-83.532-10.165-87.775a4.71 4.71 0 00.132-.508c2.145-9.884 4.901-17.701 7.954-23.93-9.06 4.226-21.057 15.54-27.526 45.349-.033.175-.082.334-.132.509-1.403 4.242-17.278 60.031 10.166 87.775 3.3 3.337 21.849 21.594 54.26 21.594 16.733 0 53.731-10.026 66.141-36.165-15.776 10.408-35.562 14.746-46.553 14.746h-.017z" fill="#D0881B"/>
    <path opacity=".53" d="M495.718 459.352c31.28 0 56.637-5.734 56.637-12.807s-25.357-12.807-56.637-12.807c-31.279 0-56.636 5.734-56.636 12.807s25.357 12.807 56.636 12.807z" fill="#D0881B"/>
  </g>
  <path d="M644 9v361h630.5l-746.655 57v-37.829a3.171 3.171 0 00-3.171-3.171H476L644 9z" fill="#2CF1D9" fill-opacity=".13"/>
  <path d="M1272.5 9v361H642l746.65 57v-37.829a3.173 3.173 0 013.18-3.171h48.67l-168-377z" fill="#2CF1D9" fill-opacity=".13"/>
  <path d="M520.463 413.341h-40.494v27.671h40.494v-27.671z" fill="#25253A"/>
  <path d="M542.26 439.907h-18.237l-6.335.142 3.2 10.851s4.383 2.1 6.829 2.1h14.838c3.972 0 7.157-3.285 6.779-7.186-.345-3.412-3.513-5.907-7.058-5.907h-.016z" fill="#363450"/>
  <path d="M541.702 438.754l-17.481 1.737-6.319-1.595-3.726 10.361 6.401 1.453a32.53 32.53 0 007.091.79h14.33c3.874 0 6.976-3.191 6.598-6.997-.328-3.317-3.414-5.749-6.877-5.749h-.017z" fill="url(#VExNg6W5um)"/>
  <path d="M517.408 440.475l6.91 1.517 16.841-.664c3.398.174 4.153 7.076.132 7.376 0 0-17.416.49-17.596.426-.181-.063-8.355-2.053-8.355-2.053l2.068-6.586v-.016z" fill="#C0B5C6"/>
  <path d="M538.665 441.581h-1.231v7.123h1.231v-7.123zm-4.891.126h-1.231v7.123h1.231v-7.123zm-5.418.095h-1.231v7.123h1.231v-7.123zm-7.78 6.744l-1.166-.363 2.232-6.791 1.166.363-2.232 6.791zm-1.539-9.239s-54.61-23.06-73.487-28.287c-5.679-2.038-15.889 8.56-6.91 16.773 0 0 47.404 17.342 75.637 21.274 3.693-.695 5.58-6.286 4.76-9.76z" fill="#363450"/>
  <path d="M435.192 420.496s50.687 22.269 79.395 26.423c.066.363-.509 1.959-.41 2.338-28.232-3.933-74.898-21.117-74.898-21.117-1.362-.363-2.462-1.642-2.987-2.653.41.537-1.822-3.333-1.1-4.991z" fill="#25253A"/>
  <path d="M450.112 439.907h18.236l6.336.142-3.201 10.851s-4.382 2.1-6.828 2.1h-14.822c-3.972 0-7.157-3.285-6.779-7.186.345-3.412 3.513-5.907 7.058-5.907z" fill="#363450"/>
  <path d="M450.686 438.754l17.481 1.737 6.32-1.595 3.726 10.361-6.402 1.453a32.53 32.53 0 01-7.091.79h-14.313c-3.874 0-6.976-3.191-6.598-6.997.328-3.317 3.414-5.749 6.877-5.749z" fill="url(#VExNg6W5un)"/>
  <path d="M474.961 440.475l-6.911 1.517-16.841-.664c-3.397.174-4.152 7.076-.131 7.376 0 0 17.415.49 17.596.426.181-.063 8.355-2.053 8.355-2.053l-2.068-6.586v-.016z" fill="#C0B5C6"/>
  <path d="M454.938 441.581h-1.231v7.123h1.231v-7.123zm4.906.126h-1.231v7.123h1.231v-7.123zm5.418.095h-1.231v7.123h1.231v-7.123zm6.532 6.744l1.182-.363-2.232-6.791-1.166.363 2.216 6.791zm1.544-9.239s54.61-23.06 73.487-28.287c5.679-2.038 15.888 8.56 6.91 16.773 0 0-47.404 17.342-75.637 21.274-3.693-.695-5.58-6.286-4.76-9.76z" fill="#363450"/>
  <path d="M557.198 420.496s-50.687 22.269-79.396 26.423c-.066.363.509 1.959.41 2.338 28.233-3.933 74.898-21.117 74.898-21.117 1.363-.363 2.463-1.642 2.988-2.653-.411.537 1.822-3.333 1.1-4.991z" fill="#25253A"/>
  <path d="M520.659 376.336c4.021 2.495 12.409 6.365 14.247 21.732v9.477c.247 14.025-6.598 14.957-13.82 14.957l-47.815.095c-4.103 0-8.059-6.239-8.076-10.188l.082-16.41c-.18-9.792 4.383-15.667 10.112-19.347" fill="#0069CA"/>
  <path d="M498.155 385.876c12.374 0 22.406-4.434 22.406-9.903 0-5.47-10.032-9.903-22.406-9.903-12.374 0-22.405 4.433-22.405 9.903 0 5.469 10.031 9.903 22.405 9.903z" fill="#0069CA"/>
  <path d="M517.067 370.713c-.131-.095-.361 0-.361 0 2.774 1.501 5.088 6.571-1.543 10.014-2.134 1.105-5.647 2.827-11.654 3.269-.903.063-1.576.79-1.559 1.658 14.083-.458 18.646-6.728 18.564-9.666-.049-1.8-1.116-3.664-3.463-5.243l.016-.032zm-38.018-.126c.131-.095.361 0 .361 0-2.774 1.5-5.088 6.57 1.543 10.013 2.118 1.106 5.614 2.812 11.572 3.254.952.079 1.674.821 1.674 1.737v.19c-10.8 1.311-18.679-6.997-18.597-9.935.049-1.8 1.116-3.664 3.464-5.243l-.017-.016z" fill="#005295"/>
  <path d="M503.26 378.2l-4.07 3.127a1.91 1.91 0 01-2.315 0l-3.66-2.78.049-7.944 9.586-1.169.427 8.766h-.017z" fill="#F4EAFF"/>
  <path d="M499.566 382.954c-.148 0-.312-.032-.46-.095-.574-.253-.837-.9-.574-1.453.656-1.422 1.871-3.364 4.776-3.743 2.791-.364 3.989-1.453 4.481-2.322.312-.521 1.002-.711 1.56-.411.541.3.738.964.427 1.501-.756 1.295-2.446 2.937-6.172 3.411-1.74.221-2.462 1.311-3.004 2.464a1.15 1.15 0 01-1.051.648h.017zm-2.887 0a1.15 1.15 0 01-1.05-.648c-.526-1.153-1.264-2.243-3.004-2.464-3.726-.474-5.417-2.116-6.172-3.411-.312-.522-.115-1.201.427-1.501.542-.3 1.247-.11 1.559.411.509.853 1.691 1.958 4.481 2.322 2.906.379 4.12 2.321 4.777 3.743.263.553 0 1.2-.575 1.453a1.194 1.194 0 01-.459.095h.016z" fill="#005295"/>
  <path opacity=".6" d="M503.229 377.694c-1.034-.032-2.15.6-3.316 1.5l-.065-8.591c1.592-.348 1.92-.553 2.987-1.232l.41 8.307-.016.016z" fill="#BBB"/>
  <path d="M498.171 371.471c-10.144-.679-17.449-8.781-21.913-20.911v-26.787c0-4.975 4.185-9.002 9.356-9.002l24.867-1.801c5.171 0 7.846 4.233 7.846 9.208l-.262 26.123c-6.106 25.129-19.911 23.154-19.911 23.154l.017.016z" fill="url(#VExNg6W5uo)"/>
  <path d="M477.148 340.562c-1.888 0-4.891 1.043-4.859 5.181.033 5.228 1.855 8.845 6.188 8.323m38.85-13.504c1.888 0 4.892 1.043 4.859 5.181-.033 5.228-1.871 8.308-6.221 7.786" fill="#F4EAFF"/>
  <path d="M525.223 385H472.35c-2.286 0-4.139 1.767-4.139 3.946v36.108c0 2.179 1.853 3.946 4.139 3.946h52.873c2.286 0 4.139-1.767 4.139-3.946v-36.108c0-2.179-1.853-3.946-4.139-3.946z" fill="url(#VExNg6W5up)"/>
  <path d="M527.617 429h-58.7c-1.535 0-2.78 1.115-2.78 2.491v.018c0 1.376 1.245 2.491 2.78 2.491h58.7c1.535 0 2.78-1.115 2.78-2.491v-.018c0-1.376-1.245-2.491-2.78-2.491z" fill="#000"/>
  <path d="M503.448 410.945v-4.89c0-.582-.302-1.11-.78-1.4l-4.132-2.437a1.535 1.535 0 00-1.578 0l-4.131 2.437c-.496.29-.78.818-.78 1.4v4.89c0 .582.301 1.11.78 1.4l4.131 2.437a1.535 1.535 0 001.578 0l4.132-2.437c.496-.29.78-.818.78-1.4z" fill="#8D39C7"/>
  <path d="M518.479 314.028c-1.412-3.064-4.235-5.212-7.501-6.38-7.485-2.654-5.992-14.041-3.562-17.958.541-.869-.345-1.88-1.461-1.674 0 0-30.137 11.877-33.469 25.728 0 0-.82 8.908 5.696 15.178 4.514 4.343 12.82 7.802 17.563 7.787 6.599-.016 18.745-4.407 21.683-5.386 4.564-6.207 3.152-12.762 1.051-17.31v.015zm-9.836 41.57c-1.001 0-2.035-.031-3.135-.11-3.628-.253-6.664-3.048-7.386-6.807l-.444-2.306c-.426-2.243.969-4.391 3.119-4.802 4.415-.821 8.404-1.089 12.179-.837 2.38.158 4.268 2.164 4.367 4.644l.164 3.838c.131 3.158-2.085 5.875-5.056 6.191a36.804 36.804 0 01-3.824.205l.016-.016zm1.543-12.777c-2.807 0-5.761.3-8.946.884-.919.174-1.526 1.201-1.313 2.243l.443 2.306c.542 2.78 2.725 4.849 5.302 5.023 2.397.158 4.53.142 6.533-.079 1.789-.19 3.119-1.911 3.02-3.933l-.164-3.838c-.066-1.374-1.034-2.464-2.249-2.559a36.682 36.682 0 00-2.642-.094l.016.047zm-26.128 13.22c-.87 0-1.707-.032-2.528-.095-2.971-.221-5.285-2.875-5.252-6.033l.033-3.838c.016-2.496 1.838-4.549 4.218-4.786 3.792-.395 7.78-.253 12.212.426 2.167.332 3.644 2.433 3.283 4.691l-.378 2.322c-.607 3.791-3.545 6.681-7.156 7.044-1.56.158-3.02.237-4.416.237l-.016.032zm-2.364-2.275c2.003.142 4.137.111 6.533-.142 2.577-.268 4.695-2.401 5.138-5.196l.377-2.322c.165-1.058-.459-2.053-1.395-2.195-4.235-.648-8.026-.79-11.605-.411-1.231.127-2.166 1.264-2.166 2.622l-.033 3.838c-.017 2.006 1.362 3.696 3.151 3.822v-.016z" fill="#1D1D1B"/>
  <path d="M497.17 347.496c.903 0 1.839.205 2.266 1.058h.049l.525-5.765-6.385-.11 1.576 5.938-.443-.379c.394-.868 1.526-.742 2.429-.758l-.017.016zm20.844-8.381l-3.932 2.581 1.286 1.814 3.932-2.582-1.286-1.813zm-42.239.52l-1.31 1.798 3.413 2.303 1.31-1.797-3.413-2.304z" fill="#1D1D1B"/>
  <path d="M474.406 340.878l3.283.443c.23-4.928 1.231-8.845 2.938-11.83l-5.548-6.318c-1.609 4.802-1.51 10.946-.673 17.705zm45.139 0l-3.283.443c-.229-4.928-1.231-8.845-2.938-11.83l5.548-6.318c1.609 4.802 1.51 10.946.673 17.705z" fill="#1D1D1B"/>
  <path d="M485.797 350.702c1.033 0 1.871-.806 1.871-1.8 0-.995-.838-1.801-1.871-1.801s-1.871.806-1.871 1.801c0 .994.838 1.8 1.871 1.8zm22.141-.173c1.078 0 1.953-.842 1.953-1.88 0-1.038-.875-1.879-1.953-1.879-1.079 0-1.954.841-1.954 1.879s.875 1.88 1.954 1.88zm-10.141 13.774a9.883 9.883 0 005.483-1.879.996.996 0 00.229-.221.611.611 0 00.115-.285.889.889 0 000-.3.731.731 0 00-.131-.284c-.066-.079-.131-.158-.23-.205a.677.677 0 00-.295-.111 1.02 1.02 0 00-.312 0 .79.79 0 00-.296.127c-3.184 2.132-5.958 2.132-8.715.031a.897.897 0 00-.608-.174.791.791 0 00-.541.285.808.808 0 00-.181.584.744.744 0 00.295.521c1.445 1.201 3.283 1.864 5.187 1.911z" fill="#5B5159"/>
  <path d="M532 402.5h194c11.046 0 20 8.954 20 20v7.5c0 11.046 8.954 20 20 20h138m483-47.5h-194c-11.05 0-20 8.954-20 20v7.5c0 11.046-8.95 20-20 20h-138m-13.58-34.084c26.02-7.794 37.92-43.226 36.15-60.747" stroke="#4DA0FD" stroke-width="3" stroke-dasharray="4 4"/>
  <g opacity=".2" fill-rule="evenodd" clip-rule="evenodd">
    <path d="M1217.62 41.98c.44-1.602.88-3.204 1.34-4.786h133.36l20.9-20.277a10 10 0 01-1.71-5.596c0-2.839 1.19-5.414 3.11-7.28A10.785 10.785 0 011382.15 1c2.92 0 5.6 1.156 7.52 3.021 1.93 1.866 3.12 4.461 3.12 7.3 0 2.839-1.19 5.434-3.12 7.3-1.92 1.865-4.58 3.021-7.52 3.021-1.95 0-3.79-.507-5.35-1.4L1354.37 42h-136.75v-.02zm160.47-34.572a5.448 5.448 0 00-1.67 3.913c0 1.541.65 2.9 1.67 3.914a5.796 5.796 0 004.04 1.622c1.58 0 3.01-.629 4.03-1.622a5.484 5.484 0 001.67-3.914c0-1.52-.62-2.92-1.65-3.913a5.845 5.845 0 00-4.03-1.623c-1.57 0-3.01.609-4.04 1.623h-.02z" fill="#101B22"/>
    <path d="M1273.59 104.754c.11-1.591.21-3.163.31-4.754h48.9l23.75 23.065c.48-.302.99-.544 1.51-.766 1.29-.523 2.68-.805 4.11-.805 2.9 0 5.56 1.148 7.47 3.001 1.91 1.853 3.09 4.432 3.09 7.252 0 2.82-1.18 5.378-3.09 7.252a10.664 10.664 0 01-7.45 3.001c-2.9 0-5.54-1.148-7.45-3.001-1.9-1.854-3.11-4.432-3.11-7.252 0-1.289.25-2.558.73-3.707.23-.544.48-1.067.79-1.551l-22.36-21.715h-47.2v-.02zm73.31 24.978c-.25.605-.37 1.29-.37 1.995 0 1.531.64 2.9 1.64 3.887a5.737 5.737 0 004 1.612c1.56 0 2.97-.625 4-1.612a5.385 5.385 0 001.66-3.887 5.37 5.37 0 00-1.64-3.888 5.774 5.774 0 00-4-1.612c-.79 0-1.53.141-2.2.423-.7.282-1.33.705-1.84 1.229l-.13.121a5.39 5.39 0 00-1.1 1.712l-.02.02z" fill="#000101"/>
    <path d="M1143 74.98c.33-1.577.71-3.133 1.06-4.71h236.09l65.15-62.367h55.06a10.059 10.059 0 012.83-4.91A10.827 10.827 0 011510.7 0c2.91 0 5.58 1.138 7.5 2.974 1.92 1.836 3.11 4.39 3.11 7.184 0 2.794-1.19 5.349-3.11 7.185-1.92 1.836-4.56 2.974-7.5 2.974-2.94 0-5.57-1.138-7.51-2.974a10.119 10.119 0 01-2.79-4.71h-53.08L1382.18 75H1143v-.02zm363.67-68.673a5.314 5.314 0 00-1.66 3.851c0 1.517.64 2.854 1.66 3.852a5.802 5.802 0 004.03 1.597c1.58 0 2.98-.619 4.02-1.597a5.246 5.246 0 001.67-3.852c0-1.516-.63-2.874-1.65-3.851a5.87 5.87 0 00-4.02-1.597c-1.57 0-3 .599-4.03 1.597h-.02z" fill="#101B22"/>
  </g>
  <g opacity=".2" fill-rule="evenodd" clip-rule="evenodd">
    <path d="M700.684 41.98a320.358 320.358 0 00-1.338-4.786H565.989l-20.902-20.277a10.027 10.027 0 001.714-5.596c0-2.839-1.192-5.414-3.115-7.28A10.767 10.767 0 00536.161 1a10.8 10.8 0 00-7.524 3.021c-1.923 1.866-3.115 4.461-3.115 7.3 0 2.839 1.192 5.434 3.115 7.3 1.923 1.865 4.577 3.021 7.524 3.021 1.944 0 3.784-.507 5.351-1.4L563.941 42h136.743v-.02zM540.216 7.408a5.431 5.431 0 011.673 3.913c0 1.541-.648 2.9-1.673 3.914a5.773 5.773 0 01-4.034 1.622 5.774 5.774 0 01-4.034-1.622 5.47 5.47 0 01-1.672-3.914c0-1.52.627-2.92 1.651-3.913a5.85 5.85 0 014.034-1.623c1.568 0 3.01.609 4.035 1.623h.02z" fill="#101B22"/>
    <path d="M644.715 104.754c-.104-1.591-.208-3.163-.311-4.754h-48.893l-23.752 23.065c-.477-.302-.995-.544-1.514-.766a10.89 10.89 0 00-4.107-.805 10.717 10.717 0 00-7.468 3.001c-1.908 1.853-3.091 4.432-3.091 7.252 0 2.82 1.183 5.378 3.091 7.252a10.666 10.666 0 007.447 3.001c2.904 0 5.539-1.148 7.447-3.001 1.909-1.854 3.112-4.432 3.112-7.252a9.7 9.7 0 00-.726-3.707 9.907 9.907 0 00-.789-1.551l22.362-21.715h47.192v-.02zm-73.308 24.978c.249.605.373 1.29.373 1.995 0 1.531-.643 2.9-1.639 3.887a5.763 5.763 0 01-4.003 1.612 5.806 5.806 0 01-4.004-1.612 5.4 5.4 0 01-1.659-3.887 5.38 5.38 0 011.639-3.888 5.801 5.801 0 014.003-1.612c.788 0 1.535.141 2.199.423a5.43 5.43 0 011.846 1.229l.125.121c.477.504.85 1.088 1.099 1.712l.021.02z" fill="#000101"/>
    <path d="M775.309 74.98c-.334-1.577-.709-3.133-1.064-4.71h-236.09L473.009 7.903h-55.057a10.083 10.083 0 00-2.835-4.91A10.815 10.815 0 00407.612 0c-2.918 0-5.587 1.138-7.505 2.974-1.917 1.836-3.106 4.39-3.106 7.184 0 2.794 1.189 5.349 3.106 7.185 1.918 1.836 4.566 2.974 7.505 2.974a10.85 10.85 0 007.505-2.974 10.093 10.093 0 002.794-4.71h53.076L536.133 75h239.176v-.02zM411.636 6.307c1.021.977 1.668 2.335 1.668 3.851 0 1.517-.647 2.854-1.668 3.852a5.8 5.8 0 01-4.024 1.597 5.836 5.836 0 01-4.023-1.597 5.236 5.236 0 01-1.668-3.852c0-1.516.626-2.874 1.647-3.851a5.876 5.876 0 014.024-1.597c1.563 0 3.001.599 4.023 1.597h.021z" fill="#101B22"/>
  </g>
  <path d="M918.75 415.916c-26.017-7.794-37.919-43.226-36.144-60.747" stroke="#4DA0FD" stroke-width="3" stroke-dasharray="4 4"/>
  <g filter="url(#VExNg6W5uq)">
    <path d="M954.561 395.38a11.159 11.159 0 0110.786.02l42.003 23.384c3.33 1.858 5.38 5.282 5.37 8.979l-.09 46.635c0 3.697-2.07 7.122-5.4 8.97l-42.072 23.252a11.159 11.159 0 01-10.786-.02l-42-23.384c-3.332-1.858-5.382-5.282-5.372-8.979l.084-46.635c0-3.697 2.071-7.122 5.404-8.96l42.073-23.252v-.01z" fill="url(#VExNg6W5ur)"/>
  </g>
  <path opacity=".61" d="M992.412 450.556l-52.077 29.537m52.077-29.537l-52.17-29.598m52.17 29.598l.031-19.752L957.783 411l-17.551 9.958m52.18 29.598l-52.18-29.598m0 0l.093 59.135m0 0L957.649 490l34.722-19.691.031-19.753-52.077 29.537zm0 0L923 470.186l.062-39.495 17.17-9.743" stroke="#fff" stroke-width="4" stroke-linejoin="round"/>
  <g opacity=".8">
    <path d="M342.28 425.928c0-45.311-2.171-65.283-18.53-69.928 11.792 16.501 11.792 42.058 12.503 69.928.73 27.87 6.009 0 6.009 0h.018z" fill="#49B779"/>
    <path d="M343.273 434.368c0-45.311 2.808-65.283 24.09-69.928-15.33 16.502-15.33 42.058-16.266 69.928-.936 27.87-7.824 0-7.824 0z" fill="#4EB780"/>
    <path d="M337.397 438.236c0-45.311-3.295-65.282-28.17-69.927 17.931 16.501 17.931 42.057 19.035 69.927 1.105 27.87 9.153 0 9.153 0h-.018zm9.602 19.972c0-45.311 3.294-65.283 28.17-69.928-17.931 16.502-17.931 42.058-19.036 69.928-1.104 27.87-9.153 0-9.153 0h.019z" fill="#5ECB96"/>
    <path d="M335.17 463.016c0-45.311-3.294-65.283-28.17-69.928 17.931 16.502 17.931 42.058 19.036 69.928 1.104 27.87 9.153 0 9.153 0h-.019z" fill="#5ECB96"/>
    <path d="M338.688 427.193c0-40.648 1.946-58.578 16.621-62.753-10.576 14.803-10.576 37.739-11.231 62.753-.655 25.014-5.39 0-5.39 0z" fill="#3FA26B"/>
    <path d="M343.893 477.095h-15.555c-1.591 0-2.938-1.12-3.144-2.638l-7.918-54.529c-.262-1.844 1.217-3.489 3.145-3.489h46.438c1.928 0 3.425 1.645 3.145 3.489l-7.918 54.529c-.224 1.518-1.572 2.638-3.144 2.638h-15.068.019z" fill="#CC2E6A"/>
    <path d="M335.693 477.095h-15.554c-1.591 0-2.939-1.12-3.144-2.638l-7.918-54.529c-.262-1.844 1.217-3.489 3.145-3.489h46.438c1.928 0 3.425 1.645 3.144 3.489l-7.917 54.529c-.225 1.518-1.572 2.638-3.145 2.638h-15.067.018z" fill="#FE5487"/>
  </g>
  <g opacity=".85">
    <path d="M1534.56 424.172c-3.92-12.1-3.77-21.154-1.82-22.126 1.95-.972 17.08 13.702 17.08 13.702l-15.26 8.424z" fill="#F79D59"/>
    <path d="M1535.58 422.174c-2.95-9.616-2.94-16.778-1.55-17.53 1.4-.752 12.46 11.021 12.46 11.021l-10.91 6.509z" fill="#D06A40"/>
    <path d="M1533.77 404.895a29.01 29.01 0 00.31 5.035c.63 4.201 2.08 7.938 3.99 10.756l-2.49 1.488c-2.75-8.962-2.93-15.783-1.82-17.279h.01z" fill="#BC5937"/>
    <path d="M1576.48 426.435c3.91-12.099 3.76-21.145 1.81-22.125-1.95-.973-17.08 13.702-17.08 13.702l15.27 8.423z" fill="#F79D59"/>
    <path d="M1575.46 424.438c2.95-9.616 2.94-16.779 1.55-17.531-1.4-.752-12.46 11.021-12.46 11.021l10.91 6.51z" fill="#D06A40"/>
    <path d="M1577.27 407.158c.04 1.618-.05 3.312-.31 5.036-.63 4.2-2.08 7.937-3.99 10.755l2.5 1.489c2.74-8.963 2.92-15.784 1.81-17.28h-.01z" fill="#BC5937"/>
    <path d="M1610.49 450.688c-.85-11.743-5.02-16.3-5.02-16.3s1.25-2.963.62-3.988-2.51.684-2.51.684.36-3.76-.28-4.672c-.64-.911-2.4.798-2.4.798s.58-3.418-1.14-4.102c-1.71-.683-2.75 2.507-2.75 2.507s-.72-3.418-1.88-3.532c-1.17-.114-2.35 3.418-2.35 3.418s-.24-1.595-1.88-1.595c-1.65 0-1.42 1.823-3.97 2.962-2.54 1.139-9.9.456-9.9.456l-4.23 26.219c14.93.145 29.66.198 37.69-2.848v-.007z" fill="#DD8447"/>
    <path d="M1606.49 442.803c-9.75 2.644-23.03-14.249-23.12-15.32 1.42-.068 2.74-.25 3.56-.615 2.55-1.139 2.32-2.962 3.97-2.962 1.64 0 1.88 1.595 1.88 1.595s1.18-3.532 2.35-3.418c1.16.114 1.87 3.532 1.87 3.532s1.04-3.19 2.76-2.507c1.72.684 1.14 4.102 1.14 4.102s1.76-1.709 2.4-.798c.64.912.28 4.672.28 4.672s1.88-1.709 2.51-.684c.63 1.025-.62 3.988-.62 3.988s2.02 2.218 3.53 7.542c-.8.342-1.64.638-2.51.873z" fill="#F79D59"/>
    <path d="M1596.97 432.345c-3.71-1.565-6.94-3.57-9.47-5.773 1.95-1.132 1.88-2.674 3.4-2.674 1.64 0 1.88 1.595 1.88 1.595s1.18-3.531 2.35-3.418c1.16.114 1.87 3.532 1.87 3.532s1.04-3.19 2.76-2.506c1.72.683 1.14 4.101 1.14 4.101s1.76-1.709 2.4-.797c.64.911.28 4.671.28 4.671s1.88-1.709 2.51-.684c.63 1.026-.62 3.988-.62 3.988s.15.167.4.517c-2.85-.433-5.88-1.276-8.9-2.552zm-44.85 28.353c8.89-2.43 16.41-7.77 16.41-7.77l-.12 1.337s8.89-5.347 10.14-8.621l.75.972s1.26-2.795 1.26-4.01l1.5 1.094s1.13-8.864-6.89-19.794c-8.01-10.93-22.16-14.697-29.81-10.687-7.63 4.01-13.27 13.482-13.27 13.482l1.13-.243s-4.89 6.433-5.64 10.687l1-.122s.38 6.434 6.51 13.482l.5-1.58s3.63 6.191 8.76 9.593v-1.701l7.77 3.889v-.008z" fill="#FFDCC5"/>
    <path d="M1553.13 452.237c10.58.782 20.38-2.582 27.23-8.507-.35 1.299-1.05 2.879-1.05 2.879l-.76-.972c-1.25 3.281-10.14 8.62-10.14 8.62l.13-1.336s-7.51 5.347-16.41 7.77l-7.76-3.889v1.701c-5.14-3.403-8.77-9.593-8.77-9.593l-.5 1.58c-2.54-2.917-4.09-5.719-5.04-8.013 5.82 5.423 13.91 9.076 23.08 9.752l-.01.008zm28.98-10.132c.02 1.025-.05 1.595-.05 1.595l-.91-.661c.32-.304.65-.615.96-.927v-.007z" fill="#EBC09C"/>
    <path d="M1528.74 438.186c-.14-.745-.16-1.17-.16-1.17l-1 .121c.75-4.253 5.64-10.686 5.64-10.686l-1.13.243s5.64-9.472 13.27-13.482c1.65-.859 3.59-1.36 5.71-1.512-.83 8.363-2.82 16.498-3.83 18.389-1.33 2.484-7.39 6.312-18.5 8.089v.008zm27.27-6.51c-1.83-2.369-.38-12.874 2.83-19.102 5.91 1.633 12.01 5.438 16.33 11.332 4.5 6.145 6.11 11.629 6.67 15.267-7.84 0-23.99-5.104-25.83-7.489v-.008z" fill="#F79D59"/>
    <path d="M1553.71 436.362c-.92.532-2.02 1.064-2.5 1.292a.576.576 0 01-.5-.008l-2.46-1.231c-.44-.22-.41-.85.06-1.002 1.65-.539 3.41-.547 5.26-.061.47.129.56.76.14 1.003v.007z" fill="#6B4226"/>
    <path d="M1558.85 441.117c.46.912 1.91 5.469-.18 6.138-2.09.668-4.38-4.573-4.38-4.573l4.56-1.572v.007z" fill="url(#VExNg6W5us)"/>
    <path d="M1526.94 467.382c13.69 9.67 68.74 10.596 88.93 0 0 0 7.66-2.028 7.43-12.95-.23-10.922-4.3-11.37-5.68-11.484-1.4-.114-22.65 7.208-25.32 7.656-2.67.448-23.8-.562-26.23-.114-2.44.448-17.53 1.466-17.53 1.466s-23.99-4.739-26.24-3.38c-4.65 2.818 4.64 18.806 4.64 18.806z" fill="#4DA0FD"/>
    <path d="M1614.67 460.926s7.14-1.899 7.65-11.773c.37 1.512.62 3.441.66 5.902.24 10.922-7.43 12.95-7.43 12.95-20.19 10.596-75.24 9.669-88.93 0 0 0-1.8-3.091-3.42-6.798 14.83 9.723 70.8 10.558 91.47-.288v.007z" fill="#2972C5"/>
    <path d="M1569.16 449.298c.71 2.157-1.29 8.074-5.05 8.172-3.76.092-5.52-5.073-5.05-7.139-.39-3.532 9.72-4.565 10.11-1.033h-.01zm-27.92-.874c.54 2.195-1.84 7.801-5.55 7.489-3.72-.311-4.2-6.41-3.6-8.393.3-2.802 9.44-1.899 9.15.904z" fill="#F79D59"/>
    <path d="M1564.34 452.677c1.78 0 3.44-.395 4.83-1.078-.48 2.56.09 5.795-5.05 5.864-6.02.083-5.03-3.768-5.14-6.145 1.48.851 3.33 1.359 5.36 1.359zm-27.06-1.192c1.41 0 2.72-.35 3.85-.95-.6 2.492-1.04 5.887-5.53 5.651-4.58-.235-3.72-4.169-3.73-6.752 1.36 1.261 3.27 2.051 5.41 2.051z" fill="#FFDCC5"/>
    <path d="M1540.23 430.848c-.83 0-1.51-.653-1.51-1.458 0-.805.68-1.458 1.51-1.458s1.5.653 1.5 1.458c0 .805-.67 1.458-1.5 1.458zm21.11-.182c-.83 0-1.5-.653-1.5-1.458 0-.806.67-1.459 1.5-1.459s1.51.653 1.51 1.459c0 .805-.68 1.458-1.51 1.458z" fill="#6B4226"/>
    <path d="M1542.43 422.683l-4.94 2.598m23.99-1.269l4.94 2.605" stroke="#CC7A42" stroke-width="2" stroke-linecap="round" stroke-linejoin="round"/>
    <path d="M1559.46 440.251c-3.82 3.145-9.83 4.93-16.94 1.026m8.21-3.942l.43 6.068" stroke="#6B4226" stroke-width="1.5" stroke-linecap="round" stroke-linejoin="round"/>
  </g>
  <defs>
    <linearGradient id="VExNg6W5ua" x1="972.507" y1="770.68" x2="976.652" y2="397.677" gradientUnits="userSpaceOnUse">
      <stop/>
      <stop offset="1" stop-opacity="0"/>
    </linearGradient>
    <linearGradient id="VExNg6W5uf" x1="1482.53" y1="428.046" x2="1341.98" y2="428.046" gradientUnits="userSpaceOnUse">
      <stop stop-color="#E85664"/>
      <stop offset="1" stop-color="#EC71BE"/>
    </linearGradient>
    <linearGradient id="VExNg6W5ug" x1="1391.49" y1="445.43" x2="1393.74" y2="461.551" gradientUnits="userSpaceOnUse">
      <stop stop-color="#F7EAFF"/>
      <stop offset="1" stop-color="#B7ACB9"/>
    </linearGradient>
    <linearGradient id="VExNg6W5uh" x1="1445.61" y1="448.083" x2="1441.61" y2="469.509" gradientUnits="userSpaceOnUse">
      <stop stop-color="#F7EAFF"/>
      <stop offset="1" stop-color="#B7ACB9"/>
    </linearGradient>
    <linearGradient id="VExNg6W5ui" x1="1380.15" y1="402.862" x2="1451.85" y2="402.862" gradientUnits="userSpaceOnUse">
      <stop stop-color="#4998ED"/>
      <stop offset="1" stop-color="#256DBA"/>
    </linearGradient>
    <linearGradient id="VExNg6W5uj" x1="1415.88" y1="350.553" x2="1423.71" y2="397.813" gradientUnits="userSpaceOnUse">
      <stop stop-color="#F7EAFF"/>
      <stop offset="1" stop-color="#B7ACB9"/>
    </linearGradient>
    <linearGradient id="VExNg6W5uk" x1="1386.08" y1="403.365" x2="1447.62" y2="403.365" gradientUnits="userSpaceOnUse">
      <stop stop-color="#351059"/>
      <stop offset="1" stop-color="#1E1D1F"/>
    </linearGradient>
    <linearGradient id="VExNg6W5ul" x1="565.417" y1="343.196" x2="408.761" y2="482.811" gradientUnits="userSpaceOnUse">
      <stop stop-color="#FFCF50"/>
      <stop offset="1" stop-color="#FF7334"/>
    </linearGradient>
    <linearGradient id="VExNg6W5um" x1="530.491" y1="441.012" x2="532.729" y2="457.036" gradientUnits="userSpaceOnUse">
      <stop stop-color="#F7EAFF"/>
      <stop offset="1" stop-color="#B7ACB9"/>
    </linearGradient>
    <linearGradient id="VExNg6W5un" x1="461.897" y1="288" x2="459.484" y2="288" gradientUnits="userSpaceOnUse">
      <stop stop-color="#F7EAFF"/>
      <stop offset="1" stop-color="#B7ACB9"/>
    </linearGradient>
    <linearGradient id="VExNg6W5uo" x1="499.517" y1="339.804" x2="533.581" y2="363.589" gradientUnits="userSpaceOnUse">
      <stop stop-color="#F7EAFF"/>
      <stop offset="1" stop-color="#B7ACB9"/>
    </linearGradient>
    <linearGradient id="VExNg6W5up" x1="468.211" y1="407.009" x2="529.362" y2="407.009" gradientUnits="userSpaceOnUse">
      <stop stop-color="#351059"/>
      <stop offset="1" stop-color="#1E1D1F"/>
    </linearGradient>
    <linearGradient id="VExNg6W5ur" x1="1015.68" y1="506.616" x2="905.136" y2="386.762" gradientUnits="userSpaceOnUse">
      <stop stop-color="#629EF4"/>
      <stop offset="1" stop-color="#D83FE4"/>
    </linearGradient>
    <linearGradient id="VExNg6W5us" x1="1559.74" y1="443.928" x2="1554.98" y2="445.239" gradientUnits="userSpaceOnUse">
      <stop stop-color="#E85664"/>
      <stop offset="1" stop-color="#EC71BE"/>
    </linearGradient>
    <radialGradient id="VExNg6W5ub" cx="0" cy="0" r="1" gradientUnits="userSpaceOnUse" gradientTransform="matrix(0 14 -91 0 1417 510)">
      <stop/>
      <stop offset="1" stop-opacity="0"/>
    </radialGradient>
    <radialGradient id="VExNg6W5uc" cx="0" cy="0" r="1" gradientUnits="userSpaceOnUse" gradientTransform="matrix(0 14 -91 0 498 500)">
      <stop/>
      <stop offset="1" stop-opacity="0"/>
    </radialGradient>
    <radialGradient id="VExNg6W5ud" cx="0" cy="0" r="1" gradientUnits="userSpaceOnUse" gradientTransform="matrix(0 10 -68.5 0 1548.5 476)">
      <stop/>
      <stop offset="1" stop-opacity="0"/>
    </radialGradient>
    <radialGradient id="VExNg6W5ue" cx="0" cy="0" r="1" gradientUnits="userSpaceOnUse" gradientTransform="matrix(0 6.73886 -43.208 0 340.208 479.739)">
      <stop/>
      <stop offset="1" stop-opacity="0"/>
    </radialGradient>
    <filter id="VExNg6W5uq" x="904" y="391" width="125.719" height="134" filterUnits="userSpaceOnUse" color-interpolation-filters="sRGB">
      <feFlood flood-opacity="0" result="BackgroundImageFix"/>
      <feColorMatrix in="SourceAlpha" type="matrix" values="0 0 0 0 0 0 0 0 0 0 0 0 0 0 0 0 0 0 127 0" result="hardAlpha"/>
      <feOffset dx="7" dy="7"/>
      <feGaussianBlur stdDeviation="5"/>
      <feColorMatrix type="matrix" values="0 0 0 0 0 0 0 0 0 0 0 0 0 0 0 0 0 0 0.15 0"/>
      <feBlend mode="normal" in2="BackgroundImageFix" result="effect1_dropShadow_3957_5947"/>
      <feBlend mode="normal" in="SourceGraphic" in2="effect1_dropShadow_3957_5947" result="shape"/>
    </filter>
  </defs>
</svg>
